<svg xmlns="http://www.w3.org/2000/svg" width="80" height="80" fill="currentColor" viewBox="0 0 80 80">
  <path fill="#fff" d="M40 16c-13.255 0-24 10.745-24 24s10.745 24 24 24 24-10.745 24-24-10.745-24-24-24Z"/>
  <path fill="#000" d="M42.929 25.831a2.831 2.831 0 1 1-5.663 0 2.831 2.831 0 0 1 5.663 0ZM25 31.922l.513-2.785 2.018.372a69.366 69.366 0 0 0 25.133 0l2.018-.372.513 2.785-2.018.372a72.188 72.188 0 0 1-8.218 1.03l-.963 11.55 2.766 11.373-2.75.669-2.913-11.973h-2.003l-2.912 11.973-2.752-.67 2.768-11.37-.963-11.55a72.188 72.188 0 0 1-8.218-1.032L25 31.923Z"/>
  <path fill="#000" d="M40 16c-13.255 0-24 10.745-24 24s10.745 24 24 24 24-10.745 24-24-10.745-24-24-24ZM18 40c0-12.15 9.85-22 22-22s22 9.85 22 22-9.85 22-22 22-22-9.85-22-22Z"/>
</svg>
