<svg xmlns="http://www.w3.org/2000/svg" width="80" height="80" fill="currentColor" viewBox="0 0 80 80">
  <path fill="#fff" d="m35.13 50.624 8.633-8.094L54.81 60.605l5.306-5.306L54.12 32.82l3.971-3.722a5.415 5.415 0 1 0-7.716-7.587l-3.548 3.915-22.134-5.533-5.302 5.302 17.849 10.81-8.01 8.839-10.567-1.922-3.263 3.264 8.492 5.256-.284 1.42c-.42 2.1 1.43 3.95 3.53 3.53l1.42-.284 5.256 8.492 3.264-3.263-1.948-10.713Z"/>
  <path fill="#263245" d="m43.763 42.53-8.633 8.094 1.948 10.713-3.264 3.263-5.256-8.492-1.42.284c-2.1.42-3.95-1.43-3.53-3.53l.284-1.42-8.492-5.256 3.263-3.264 10.567 1.922 8.01-8.84-17.849-10.81 5.302-5.301 22.134 5.533 3.548-3.915a5.415 5.415 0 1 1 7.716 7.587l-3.97 3.722 5.994 22.48-5.306 5.305L43.763 42.53Zm8.094-19.676L26.112 51.262a1 1 0 0 0-.24.476l-.303 1.516a1 1 0 0 0 1.177 1.177l1.498-.3a1 1 0 0 0 .488-.25l27.991-26.242a3.415 3.415 0 1 0-4.866-4.785ZM27.648 46.589l-8.311-1.511-.737.736 6.246 3.867 2.802-3.092Zm2.663 8.552 3.875 6.26.736-.738-1.529-8.41-3.082 2.888Zm8.23-20.687 6.609-7.386-19.843-4.96-2.698 2.697 15.932 9.65Zm6.735 6.716 9.915 16.225 2.694-2.694-5.419-20.321-7.19 6.79Z"/>
</svg>
