<svg xmlns="http://www.w3.org/2000/svg" width="80" height="80" fill="currentColor" viewBox="0 0 80 80">
  <path fill="#fff" d="M16 25a9 9 0 0 1 15.072-6.643l1.112 1.016-1.37.63a22.032 22.032 0 0 0-5.647 3.75l1.415 1.415A19.926 19.926 0 0 1 40 20c5.163 0 9.87 1.956 13.417 5.168l1.416-1.415a22.033 22.033 0 0 0-5.648-3.75l-1.369-.63 1.112-1.016a9 9 0 0 1 12.715 12.715l-1.016 1.112-.63-1.369a22.033 22.033 0 0 0-3.75-5.648l-1.415 1.415A19.926 19.926 0 0 1 60 40a19.952 19.952 0 0 1-6.803 15.028l4.651 7.442-1.696 1.06-4.532-7.25A19.909 19.909 0 0 1 40 60a19.909 19.909 0 0 1-11.62-3.72l-4.532 7.25-1.696-1.06 4.651-7.442A19.952 19.952 0 0 1 20 40c0-5.163 1.956-9.87 5.168-13.417l-1.415-1.416a22.032 22.032 0 0 0-3.75 5.648l-.63 1.369-1.016-1.112A8.97 8.97 0 0 1 16 25Z"/>
  <path fill="#000" d="M41 39.586V32h-2v8.414l4.293 4.293 1.414-1.414L41 39.586Z"/>
  <path fill="#000" d="M25 40c0-8.284 6.716-15 15-15 8.284 0 15 6.716 15 15 0 8.284-6.716 15-15 15-8.284 0-15-6.716-15-15Zm15-13c-7.18 0-13 5.82-13 13s5.82 13 13 13 13-5.82 13-13-5.82-13-13-13Z"/>
  <path fill="#000" d="M16 25a9 9 0 0 1 15.072-6.643l1.112 1.016-1.37.63a22.032 22.032 0 0 0-5.647 3.75l1.415 1.415A19.926 19.926 0 0 1 40 20c5.163 0 9.87 1.956 13.417 5.168l1.416-1.415a22.033 22.033 0 0 0-5.648-3.75l-1.369-.63 1.112-1.016a9 9 0 0 1 12.715 12.715l-1.016 1.112-.63-1.369a22.033 22.033 0 0 0-3.75-5.648l-1.415 1.415A19.926 19.926 0 0 1 60 40a19.952 19.952 0 0 1-6.803 15.028l4.651 7.442-1.696 1.06-4.532-7.25A19.909 19.909 0 0 1 40 60a19.909 19.909 0 0 1-11.62-3.72l-4.532 7.25-1.696-1.06 4.651-7.442A19.952 19.952 0 0 1 20 40c0-5.163 1.956-9.87 5.168-13.417l-1.415-1.416a22.032 22.032 0 0 0-3.75 5.648l-.63 1.369-1.016-1.112A8.97 8.97 0 0 1 16 25Zm9-7a7 7 0 0 0-6.067 10.494 24.108 24.108 0 0 1 9.561-9.561A6.964 6.964 0 0 0 25 18Zm-3 22c0 9.941 8.059 18 18 18s18-8.059 18-18-8.059-18-18-18-18 8.059-18 18Zm39.067-11.506a7 7 0 0 0-9.561-9.561 24.107 24.107 0 0 1 9.561 9.561Z"/>
</svg>
