<svg xmlns="http://www.w3.org/2000/svg" width="80" height="80" fill="currentColor" viewBox="0 0 80 80">
  <path fill="#fff" d="M51.561 14.905a1 1 0 0 0-.838-.808 9.987 9.987 0 0 0-8.534 2.822 9.987 9.987 0 0 0-1.863 2.572A4.998 4.998 0 0 0 36 17h-2v2h2a3 3 0 0 1 3 3v3.716a6.146 6.146 0 0 1-1.69-.509A12.65 12.65 0 0 0 31.905 24C24.758 24 19 29.913 19 37.162c0 3.665.745 5.767 1.642 7.707.153.33.307.65.46.969.73 1.514 1.446 3.001 1.917 5.358C24.26 57.396 27.894 62 33.333 62c2.008 0 3.872-.63 5.41-1.706.712-.499 1.802-.499 2.514 0A9.406 9.406 0 0 0 46.667 62c5.42 0 9.277-4.579 10.32-10.836.312-1.878.964-3.244 1.696-4.777.176-.37.357-.749.54-1.147.935-2.05 1.777-4.403 1.777-8.078 0-7.083-5.498-12.891-12.417-13.153a9.99 9.99 0 0 0 2.979-9.104Z"/>
  <path fill="#263245" d="M36.232 42.366a2 2 0 0 1-3.464-2c.67-1.161 2.7-2.057 3.45-2.356a.234.234 0 0 1 .322.192c.098.82.302 3.108-.308 4.164Zm10.268.732a2 2 0 0 0 .732-2.732c-.61-1.056-2.693-2.023-3.453-2.348a.234.234 0 0 0-.327.182c-.115.799-.354 3.005.316 4.166a2 2 0 0 0 2.732.732Z"/>
  <path fill="#263245" d="M51.561 14.905a1 1 0 0 0-.838-.808 9.987 9.987 0 0 0-8.534 2.822 9.987 9.987 0 0 0-1.863 2.572A4.998 4.998 0 0 0 36 17h-2v2h2a3 3 0 0 1 3 3v3.716a6.146 6.146 0 0 1-1.69-.509A12.65 12.65 0 0 0 31.905 24C24.758 24 19 29.913 19 37.162c0 3.665.745 5.767 1.642 7.707.153.33.307.65.46.969.73 1.514 1.446 3.001 1.917 5.358C24.26 57.396 27.894 62 33.333 62c2.008 0 3.872-.63 5.41-1.706.712-.499 1.802-.499 2.514 0A9.406 9.406 0 0 0 46.667 62c5.42 0 9.277-4.579 10.32-10.836.312-1.878.964-3.244 1.696-4.777.176-.37.357-.749.54-1.147.935-2.05 1.777-4.403 1.777-8.078 0-7.083-5.498-12.891-12.417-13.153a9.99 9.99 0 0 0 2.979-9.104Zm-7.958 3.428a7.978 7.978 0 0 1 6.092-2.331 7.982 7.982 0 0 1-2.31 6.383 7.978 7.978 0 0 1-6.092 2.331 7.982 7.982 0 0 1 2.31-6.383ZM31.905 26c1.627 0 3.168.364 4.553 1.017 2.193 1.033 4.89 1.033 7.084 0A10.65 10.65 0 0 1 48.095 26C54.098 26 59 30.977 59 37.162c0 3.307-.742 5.373-1.597 7.247-.156.342-.32.684-.487 1.032-.745 1.555-1.539 3.213-1.902 5.395-.958 5.743-4.3 9.164-8.347 9.164a7.406 7.406 0 0 1-4.263-1.345c-1.401-.98-3.407-.98-4.808 0A7.406 7.406 0 0 1 33.333 60c-4.028 0-7.192-3.395-8.352-9.196-.525-2.623-1.356-4.345-2.095-5.875a61.362 61.362 0 0 1-.428-.9C21.654 42.295 21 40.48 21 37.162 21 30.977 25.902 26 31.905 26Z"/>
</svg>
