<svg xmlns="http://www.w3.org/2000/svg" width="80" height="80" fill="currentColor" viewBox="0 0 80 80">
  <path fill="#fff" d="M16 40c0-13.255 10.745-24 24-24s24 10.745 24 24-10.745 24-24 24-24-10.745-24-24Z"/>
  <path fill="#000" d="M34.48 39.81 27.618 47l6.862 7.19 1.447-1.38-4.59-4.81H52v-2H31.337l4.59-4.81-1.447-1.38Zm11.04-14L52.382 33l-6.862 7.19-1.447-1.38 4.59-4.81H28v-2h20.663l-4.59-4.81 1.447-1.38Z"/>
  <path fill="#000" d="M40 18c-12.15 0-22 9.85-22 22s9.85 22 22 22 22-9.85 22-22-9.85-22-22-22ZM16 40c0-13.255 10.745-24 24-24s24 10.745 24 24-10.745 24-24 24-24-10.745-24-24Z"/>
</svg>
