<svg xmlns="http://www.w3.org/2000/svg" width="80" height="80" fill="currentColor" viewBox="0 0 80 80">
  <path fill="#fff" d="M34 19a6 6 0 0 1 12 0v2.163C51.864 23.537 56 29.285 56 36v6h7v11a5 5 0 0 1-5 5h-2v3H24v-3h-2a5 5 0 0 1-5-5V42h7v-6c0-6.715 4.136-12.463 10-14.837V19Zm10 0a4 4 0 0 0-8 0v1.504A16.027 16.027 0 0 1 40 20c1.381 0 2.721.175 4 .504V19Z"/>
  <path fill="#000" d="M45.414 33 40 27.586 34.586 33 40 38.414 45.414 33ZM40 35.586 37.414 33 40 30.414 42.586 33 40 35.586ZM45 55a5 5 0 0 0 5-5v-8H30v8a5 5 0 0 0 5 5h10Zm-13-9v-2h16v2H32Zm13 2h3v2a3 3 0 0 1-3 3H35a3 3 0 0 1-3-3v-2h11v2h2v-2Z"/>
  <path fill="#000" d="M34 19a6 6 0 0 1 12 0v2.163C51.864 23.537 56 29.285 56 36v6h7v11a5 5 0 0 1-5 5h-2v3H24v-3h-2a5 5 0 0 1-5-5V42h7v-6c0-6.715 4.136-12.463 10-14.837V19Zm-8 40h28V36c0-7.732-6.268-14-14-14s-14 6.268-14 14v23Zm-2-15h-5v2h5v-2Zm0 4h-5v5a3 3 0 0 0 3 3h2v-8Zm32-2h5v-2h-5v2Zm0 10h2a3 3 0 0 0 3-3v-5h-5v8ZM44 19a4 4 0 0 0-8 0v1.504A16.027 16.027 0 0 1 40 20c1.381 0 2.721.175 4 .504V19Z"/>
</svg>
