<svg xmlns="http://www.w3.org/2000/svg" width="80" height="80" fill="currentColor" viewBox="0 0 80 80">
  <path fill="#fff" d="M40 13a8 8 0 0 0-8 8H22v40h36V21H48a8 8 0 0 0-8-8Zm6 8H34a6 6 0 0 1 12 0Z"/>
  <path fill="#000" d="M39 50.077V55h2v-4.923h6l1-1V35.539h-2v12.538h-5V33h-2v15.077h-5V35.539h-2v13.538l1 1h6Z"/>
  <path fill="#000" d="M40 13a8 8 0 0 0-8 8H22v40h36V21H48a8 8 0 0 0-8-8Zm8 12.17V23h8v36H24V23h8v2.17a3.001 3.001 0 1 0 2 0V23h12v2.17a3.001 3.001 0 1 0 2 0ZM46 21H34a6 6 0 0 1 12 0Zm-13 6a1 1 0 1 1 0 2 1 1 0 0 1 0-2Zm13 1a1 1 0 1 1 2 0 1 1 0 0 1-2 0Z"/>
</svg>
