<svg xmlns="http://www.w3.org/2000/svg" width="80" height="80" fill="currentColor" viewBox="0 0 80 80">
  <path fill="#fff" d="M19.293 32.021A9 9 0 0 1 32.02 19.293L60.707 47.98A9 9 0 0 1 47.98 60.708L19.293 32.02Z"/>
  <path fill="#000" d="M30.1 32.929a1 1 0 1 0-1.413-1.414 1 1 0 0 0 1.413 1.414Zm-4.242-1.414a1 1 0 1 0-1.414-1.415 1 1 0 0 0 1.414 1.415Zm-1.414-4.242a1 1 0 1 0-1.415-1.415 1 1 0 0 0 1.415 1.415Zm8.485 2.827a1 1 0 1 0-1.414-1.414 1 1 0 0 0 1.414 1.415Zm-4.243-1.413a1 1 0 1 0-1.414-1.415 1 1 0 0 0 1.414 1.415Zm-1.414-4.244a1 1 0 1 0-1.414-1.414 1 1 0 0 0 1.414 1.414Zm4.243 1.415a1 1 0 1 0-1.415-1.415 1 1 0 0 0 1.415 1.415Zm22.627 29.699a1 1 0 1 1-1.414 1.414 1 1 0 0 1 1.414-1.414ZM49.9 54.142a1 1 0 1 1-1.415 1.415 1 1 0 0 1 1.415-1.415ZM48.485 49.9a1 1 0 1 1-1.414 1.414 1 1 0 0 1 1.414-1.415Zm8.485 2.827a1 1 0 1 1-1.414 1.415 1 1 0 0 1 1.415-1.415Zm-4.242-1.414a1 1 0 1 1-1.414 1.415 1 1 0 0 1 1.414-1.415Zm-1.414-4.242a1 1 0 1 1-1.415 1.414 1 1 0 0 1 1.415-1.414Zm4.242 1.414a1 1 0 1 1-1.414 1.415 1 1 0 0 1 1.414-1.415Z"/>
  <path fill="#000" d="M19.293 32.021A9 9 0 0 1 32.02 19.293L60.707 47.98A9 9 0 0 1 47.98 60.708L19.293 32.02Zm1.414-11.314a7 7 0 0 0 0 9.9l7.98 7.98 9.899-9.9-7.98-7.98a7 7 0 0 0-9.899 0ZM30.1 40l9.9 9.9 9.9-9.9-9.9-9.9-9.9 9.9Zm21.214 1.415-9.9 9.9 7.98 7.978a7 7 0 0 0 9.899-9.9l-7.98-7.978Z"/>
</svg>
