<svg xmlns="http://www.w3.org/2000/svg" width="80" height="80" fill="currentColor" viewBox="0 0 80 80">
  <path fill="#fff" d="M56.53 22.152 40 11.821 23.47 22.152l1.06 1.696L27 22.304V36H16v2h2v20h-2v2h48v-2h-2V38h2v-2H53V22.304l2.47 1.544 1.06-1.696Z"/>
  <path fill="#000" d="M40 45a2 2 0 1 0 0-4 2 2 0 0 0 0 4Zm-3-23a3 3 0 1 0 0 6h2v2h-4v2h4v1h2v-1h2a3 3 0 1 0 0-6h-2v-2h4v-2h-4v-1h-2v1h-2Zm-1 3a1 1 0 0 1 1-1h2v2h-2a1 1 0 0 1-1-1Zm7 3a1 1 0 1 1 0 2h-2v-2h2Z"/>
  <path fill="#000" d="M56.53 22.152 40 11.821 23.47 22.152l1.06 1.696L27 22.304V36H16v2h2v20h-2v2h48v-2h-2V38h2v-2H53V22.304l2.47 1.544 1.06-1.696ZM43 52v6h-6v-6a3 3 0 1 1 6 0Zm2 0a5 5 0 0 0-10 0v6h-3V38h16v20h-3v-6Zm6-16H29V21.054l11-6.875 11 6.875V36Zm3 2v20h-4V38h4Zm2 20V38h4v20h-4Zm-26 0h-4V38h4v20Zm-6 0h-4V38h4v20Z"/>
</svg>
