<svg xmlns="http://www.w3.org/2000/svg" width="80" height="80" fill="currentColor" viewBox="0 0 80 80">
  <path fill="#fff" d="M54 26a2 2 0 0 0-2-2h-4a2 2 0 0 0-2 2v10H34V26a2 2 0 0 0-2-2h-4a2 2 0 0 0-2 2v1h-4a2 2 0 0 0-2 2v7a4 4 0 0 0 0 8v7a2 2 0 0 0 2 2h4v1a2 2 0 0 0 2 2h4a2 2 0 0 0 2-2V44h12v10a2 2 0 0 0 2 2h4a2 2 0 0 0 2-2v-1h4a2 2 0 0 0 2-2v-7a4 4 0 0 0 0-8v-7a2 2 0 0 0-2-2h-4v-1Z"/>
  <path fill="#263245" d="M54 26a2 2 0 0 0-2-2h-4a2 2 0 0 0-2 2v10H34V26a2 2 0 0 0-2-2h-4a2 2 0 0 0-2 2v1h-4a2 2 0 0 0-2 2v7a4 4 0 0 0 0 8v7a2 2 0 0 0 2 2h4v1a2 2 0 0 0 2 2h4a2 2 0 0 0 2-2V44h12v10a2 2 0 0 0 2 2h4a2 2 0 0 0 2-2v-1h4a2 2 0 0 0 2-2v-7a4 4 0 0 0 0-8v-7a2 2 0 0 0-2-2h-4v-1ZM26 51h-4V29h4v22Zm2 3V26h4v28h-4Zm-8-12a2 2 0 1 1 0-4v4Zm32-16v28h-4V26h4Zm6 25h-4V29h4v22Zm4-11a2 2 0 0 1-2 2v-4a2 2 0 0 1 2 2Zm-28 2v-4h12v4H34Z"/>
</svg>
