<svg xmlns="http://www.w3.org/2000/svg" width="80" height="80" fill="currentColor" viewBox="0 0 80 80">
  <path fill="#fff" d="M16 40c0-13.255 10.745-24 24-24s24 10.745 24 24-10.745 24-24 24-24-10.745-24-24Z"/>
  <path fill="#263245" d="M16 40c0-13.255 10.745-24 24-24s24 10.745 24 24-10.745 24-24 24-24-10.745-24-24Zm2.022-1H39v-5.074c-3.739-.324-6.643-2.416-9.078-4.348-.305-.242-.601-.48-.89-.713-1-.804-1.914-1.54-2.83-2.134-.998-.65-1.904-1.063-2.784-1.19A21.908 21.908 0 0 0 18.022 39Zm13.143-10.988c2.38 1.887 4.827 3.59 7.835 3.905V18.022a21.918 21.918 0 0 0-13.983 5.868c.797.282 1.553.694 2.275 1.163 1.01.656 2.031 1.479 3.044 2.294.277.223.554.446.83.665ZM41 33.925V39h20.978a21.908 21.908 0 0 0-5.396-13.459c-.88.127-1.786.54-2.785 1.19-.915.594-1.83 1.33-2.828 2.134l-.891.713c-2.435 1.932-5.34 4.024-9.078 4.348Zm0-2.01c3.008-.314 5.455-2.017 7.835-3.904l.83-.665c1.012-.816 2.033-1.638 3.043-2.294.722-.469 1.478-.88 2.275-1.163A21.918 21.918 0 0 0 41 18.022v13.895ZM61.978 41H41v5.043c3.739.324 6.643 2.416 9.078 4.348.304.24.599.478.887.71l.003.002c.999.804 1.914 1.54 2.83 2.135 1.007.655 1.92 1.07 2.808 1.193A21.909 21.909 0 0 0 61.978 41ZM41 61.978a21.918 21.918 0 0 0 14.007-5.891c-.805-.282-1.57-.698-2.299-1.172-1.01-.655-2.03-1.477-3.043-2.292v-.001c-.278-.223-.555-.446-.83-.665-2.38-1.888-4.827-3.59-7.835-3.905v13.926Zm-2-15.935V41H18.022a21.909 21.909 0 0 0 5.372 13.431c.888-.122 1.8-.538 2.809-1.193.915-.595 1.83-1.33 2.829-2.134.29-.233.585-.471.89-.713 2.435-1.932 5.34-4.024 9.078-4.348Zm0 2.01c-3.008.314-5.455 2.016-7.835 3.904-.275.219-.552.442-.83.665-1.012.815-2.033 1.638-3.043 2.294-.73.473-1.494.889-2.3 1.171A21.918 21.918 0 0 0 39 61.977V48.053Z"/>
</svg>
