<svg xmlns="http://www.w3.org/2000/svg" width="80" height="80" fill="currentColor" viewBox="0 0 80 80">
  <path fill="#fff" d="M36 17a4 4 0 0 1 8 0v.504C50.9 19.28 56 25.544 56 33v11a4 4 0 0 0 4 4h2v10H43.874a4.002 4.002 0 0 1-7.748 0H18V48h2a4 4 0 0 0 4-4V33c0-7.455 5.1-13.72 12-15.496V17Z"/>
  <path fill="#000" d="M32 33c0-4.694 3.306-8 8-8v-2c-5.799 0-10 4.201-10 10h2Z"/>
  <path fill="#000" d="M36 17a4 4 0 0 1 8 0v.504C50.9 19.28 56 25.544 56 33v11a4 4 0 0 0 4 4h2v10H43.874a4.002 4.002 0 0 1-7.748 0H18V48h2a4 4 0 0 0 4-4V33c0-7.455 5.1-13.72 12-15.496V17ZM20 50v6h40v-6H20Zm4.472-2h31.056A5.978 5.978 0 0 1 54 44V33c0-7.732-6.268-14-14-14s-14 6.268-14 14v11a5.978 5.978 0 0 1-1.528 4ZM42 17a2 2 0 1 0-4 0v.124a16.158 16.158 0 0 1 4 0V17Z"/>
</svg>
