<svg xmlns="http://www.w3.org/2000/svg" width="80" height="80" fill="currentColor" viewBox="0 0 80 80">
  <path fill="#fff" d="M54.5 19a4.5 4.5 0 0 1 0 9H53v-2h1.5a2.5 2.5 0 0 0 0-5H43.496l7.623 18.421A9.997 9.997 0 0 1 54 39c5.523 0 10 4.477 10 10s-4.477 10-10 10-10-4.477-10-10a9.998 9.998 0 0 1 5.27-8.813l-2.997-7.246-12.067 10.342A9.954 9.954 0 0 1 36 49c0 5.523-4.477 10-10 10s-10-4.477-10-10 4.477-10 10-10c1.481 0 2.888.322 4.152.9L24.4 26H21v-2h10.303l3.252 2.168-1.11 1.664L30.697 26h-4.132l6.475 15.648 12.428-10.652L40.504 19H54.5Z"/>
  <path fill="#263245" d="M54.5 19H40.504l4.964 11.996L33.04 41.648 26.565 26h4.132l2.748 1.832 1.11-1.664L31.303 24H21v2h3.4l5.752 13.9A9.964 9.964 0 0 0 26 39c-5.523 0-10 4.477-10 10s4.477 10 10 10 10-4.477 10-10a9.954 9.954 0 0 0-1.794-5.717l12.067-10.342 2.998 7.246A9.998 9.998 0 0 0 44 49c0 5.523 4.477 10 10 10s10-4.477 10-10-4.477-10-10-10a9.997 9.997 0 0 0-2.881.421L43.496 21H54.5a2.5 2.5 0 0 1 0 5H53v2h1.5a4.5 4.5 0 0 0 0-9Zm-4.46 23.047 3.036 7.335 1.848-.764-3.035-7.336a8 8 0 1 1-1.848.765Zm-18.664 1.028-6.027 5.166 1.302 1.518 6.027-5.166a8 8 0 1 1-1.302-1.518Z"/>
</svg>
