<svg xmlns="http://www.w3.org/2000/svg" width="80" height="80" fill="currentColor" viewBox="0 0 80 80">
  <path fill="#fff" d="m40 15.315 12 7.636v11.5l11 7v12.598l-12 7.636-11-7-11 7-12-7.636V41.45l11-7v-11.5l12-7.636Z"/>
  <path fill="#000" d="m40 15.315 12 7.636v11.5l11 7v12.598l-12 7.636-11-7-11 7-12-7.636V41.45l11-7v-11.5l12-7.636Zm-11 20.87L19.863 42 29 47.815 38.137 42 29 36.185Zm10 7.636-9 5.728v9.13l9-5.728v-9.13Zm2 9.13 9 5.727v-9.13l-9-5.727v9.13ZM41.863 42 51 47.815 60.137 42 51 36.185 41.863 42ZM50 34.45v-9.129l-9 5.728v9.13l9-5.728Zm-11 5.728v-9.13l-9-5.727v9.13l9 5.727ZM30.863 23.5 40 29.314l9.137-5.814L40 17.685 30.863 23.5ZM61 43.82l-9 5.728v9.13l9-5.728v-9.13ZM28 58.678v-9.13l-9-5.727v9.13l9 5.727Z"/>
</svg>
