<svg xmlns="http://www.w3.org/2000/svg" width="80" height="80" fill="currentColor" viewBox="0 0 80 80">
  <path fill="#fff" d="M53 21.054V21h8c1.683 0 3 1.395 3 3.057v30.857c0 1.662-1.317 3.057-3 3.057H43.244A2.968 2.968 0 0 1 41 59h-2c-.9 0-1.699-.403-2.244-1.029H19c-1.683 0-3-1.395-3-3.057V24.057C16 22.395 17.317 21 19 21h8.17a28.2 28.2 0 0 1 2.086-.58c3.128-.726 6.643-.747 10.744 1.894 4.101-2.641 7.616-2.62 10.744-1.895.77.179 1.527.403 2.256.635Z"/>
  <path fill="#263245" d="M53 21.054V21h8c1.683 0 3 1.395 3 3.057v30.857c0 1.662-1.317 3.057-3 3.057H43.244A2.968 2.968 0 0 1 41 59h-2c-.9 0-1.699-.403-2.244-1.029H19c-1.683 0-3-1.395-3-3.057V24.057C16 22.395 17.317 21 19 21h8.17a28.2 28.2 0 0 1 2.086-.58c3.128-.726 6.643-.747 10.744 1.894 4.101-2.641 7.616-2.62 10.744-1.895.77.179 1.527.403 2.256.635ZM60 23v31H20V23h-1c-.526 0-1 .447-1 1.057v30.857c0 .61.474 1.057 1 1.057h18.852l.287.51A.99.99 0 0 0 39 57h2a.99.99 0 0 0 .86-.519l.288-.51H61c.526 0 1-.446 1-1.057V24.057c0-.61-.474-1.057-1-1.057h-1Zm-32.519 0c-.295.095-.59.192-.886.29-.389.129-.78.258-1.18.384-1.103.349-2.245.666-3.415.79V51.86c.7-.183 1.462-.537 2.34-1.008.279-.15.57-.31.87-.477 1.043-.579 2.21-1.227 3.439-1.687 1.626-.61 3.458-.939 5.515-.46 1.539.358 3.141 1.153 4.836 2.52v-26.7c-3.6-2.349-6.564-2.314-9.292-1.681a27.22 27.22 0 0 0-2.208.626V23h-.019ZM41 24.05v26.7c1.695-1.368 3.297-2.163 4.836-2.52 2.057-.48 3.889-.151 5.515.459 1.229.46 2.397 1.108 3.439 1.687.3.167.591.328.87.477.878.47 1.64.825 2.34 1.008V24.463c-1.17-.123-2.312-.44-3.415-.789-.4-.126-.791-.255-1.18-.384-1.031-.34-2.041-.674-3.113-.922-2.728-.633-5.692-.668-9.292 1.681Zm9.649 26.511c-1.374-.515-2.792-.749-4.36-.384-1.084.252-2.291.803-3.641 1.823h10.945c-.97-.537-1.918-1.054-2.944-1.439ZM37.352 52c-1.35-1.02-2.557-1.57-3.641-1.823-1.568-.365-2.986-.13-4.36.384-1.026.385-1.974.902-2.944 1.439h10.945Z"/>
</svg>
