<svg xmlns="http://www.w3.org/2000/svg" width="80" height="80" fill="currentColor" viewBox="0 0 80 80">
  <path fill="#fff" d="M47 12H33v10h14V12ZM30 50H16v10h14V50Zm17 0H33v10h14V50Zm3 0h14v10H50V50ZM36 34a3 3 0 0 0 3-3v-7h2v7a3 3 0 0 0 3 3h9a5 5 0 0 1 5 5v9h-2v-9a3 3 0 0 0-3-3h-9a4.978 4.978 0 0 1-3-1v13h-2V35c-.836.628-1.874 1-3 1h-9a3 3 0 0 0-3 3v9h-2v-9a5 5 0 0 1 5-5h9Z"/>
  <path fill="#263245" d="M39 17a1 1 0 1 1-2 0 1 1 0 0 1 2 0Z"/>
  <path fill="#263245" d="M47 12H33v10h14V12Zm-12 8v-6h10v6H35ZM21 56a1 1 0 1 0 0-2 1 1 0 0 0 0 2Z"/>
  <path fill="#263245" d="M30 50H16v10h14V50Zm-12 8v-6h10v6H18Zm21-3a1 1 0 1 1-2 0 1 1 0 0 1 2 0Z"/>
  <path fill="#263245" d="M47 50H33v10h14V50Zm-2 8H35v-6h10v6Zm10-2a1 1 0 1 0 0-2 1 1 0 0 0 0 2Z"/>
  <path fill="#263245" d="M50 50v10h14V50H50Zm12 2v6H52v-6h10ZM36 34a3 3 0 0 0 3-3v-7h2v7a3 3 0 0 0 3 3h9a5 5 0 0 1 5 5v9h-2v-9a3 3 0 0 0-3-3h-9a4.978 4.978 0 0 1-3-1v13h-2V35c-.836.628-1.874 1-3 1h-9a3 3 0 0 0-3 3v9h-2v-9a5 5 0 0 1 5-5h9Z"/>
</svg>
