<svg xmlns="http://www.w3.org/2000/svg" width="80" height="80" fill="currentColor" viewBox="0 0 80 80">
  <path fill="#fff" d="M30 19a3 3 0 0 1 3-3h14a3 3 0 0 1 3 3v6h14v34H16V25h14v-6Zm6 6h8v-3h-8v3Z"/>
  <path fill="#000" d="M39 35h-3a4 4 0 0 0 0 8h3v4h-6v2h6v2h2v-2h3a4 4 0 0 0 0-8h-3v-4h6v-2h-6v-2h-2v2Zm-3 2h3v4h-3a2 2 0 1 1 0-4Zm5 6h3a2 2 0 1 1 0 4h-3v-4Z"/>
  <path fill="#000" d="M30 19a3 3 0 0 1 3-3h14a3 3 0 0 1 3 3v6h14v34H16V25h14v-6Zm17-1H33a1 1 0 0 0-1 1v6h2v-4a1 1 0 0 1 1-1h10a1 1 0 0 1 1 1v4h2v-6a1 1 0 0 0-1-1Zm-11 7h8v-3h-8v3Zm-11 2v30h30V27H25Zm-7 0v30h5V27h-5Zm44 30V27h-5v30h5Z"/>
</svg>
