<svg xmlns="http://www.w3.org/2000/svg" width="80" height="80" fill="currentColor" viewBox="0 0 80 80">
  <path fill="#fff" d="M30 19a3 3 0 0 1 3-3h14a3 3 0 0 1 3 3v6h14v34H16V25h14v-6Zm6 6h8v-3h-8v3Z"/>
  <path fill="#263245" d="M40 44a2 2 0 1 0 0-4 2 2 0 0 0 0 4Z"/>
  <path fill="#263245" d="M30 19a3 3 0 0 1 3-3h14a3 3 0 0 1 3 3v6h14v34H16V25h14v-6Zm17-1H33a1 1 0 0 0-1 1v6h2v-4a1 1 0 0 1 1-1h10a1 1 0 0 1 1 1v4h2v-6a1 1 0 0 0-1-1Zm-11 7h8v-3h-8v3Zm26 2H18v7a7 7 0 0 0 7 7h8v-5h14v5h8a7 7 0 0 0 7-7v-7ZM25 43a8.983 8.983 0 0 1-7-3.343V57h44V39.657A8.983 8.983 0 0 1 55 43h-8v5H33v-5h-8Zm10-5v8h10v-8H35Z"/>
</svg>
