<svg xmlns="http://www.w3.org/2000/svg" width="80" height="80" fill="currentColor" viewBox="0 0 80 80">
  <path fill="#fff" d="M16 21v38h34.586l3.707 3.707A3.828 3.828 0 0 0 60.696 59H64V21H16Z"/>
  <path fill="#000" d="M22 25a1 1 0 1 1-2 0 1 1 0 0 1 2 0Zm4 0a1 1 0 1 1-2 0 1 1 0 0 1 2 0Zm3 1a1 1 0 1 0 0-2 1 1 0 0 0 0 2Zm6 17a5 5 0 0 1 5-5v-2a7 7 0 0 0-7 7h2Z"/>
  <path fill="#000" d="M16 21v38h34.586l3.707 3.707A3.828 3.828 0 0 0 60.696 59H64V21H16Zm43.414 36L52.5 50.086l-2 2-2.047-2.047A10.956 10.956 0 0 0 51 43c0-6.075-4.925-11-11-11s-11 4.925-11 11 4.925 11 11 11c2.678 0 5.132-.957 7.04-2.547l2.046 2.047-2 2 1.5 1.5H18V29h44v28h-2.586ZM18 27v-4h44v4H18Zm13 16a9 9 0 1 1 18 0 9 9 0 0 1-18 0Zm18.914 12.5 2.586-2.586 5.793 5.793a1.829 1.829 0 0 1-2.586 2.586L49.914 55.5Z"/>
</svg>
