<svg xmlns="http://www.w3.org/2000/svg" width="80" height="80" fill="currentColor" viewBox="0 0 80 80">
  <path fill="#fff" d="M64 21H16v38h48V21Z"/>
  <path fill="#263245" d="M22 25a1 1 0 1 1-2 0 1 1 0 0 1 2 0Zm3 1a1 1 0 1 0 0-2 1 1 0 0 0 0 2Zm5-1a1 1 0 1 1-2 0 1 1 0 0 1 2 0Zm9.05 22.879a1 1 0 1 1 2 0 1 1 0 0 1-2 0Zm0-3h2v-8h-2v8Z"/>
  <path fill="#263245" d="M40 32c-6.075 0-11 4.925-11 11s4.925 11 11 11 11-4.925 11-11-4.925-11-11-11Zm-9 11a9 9 0 1 1 18 0 9 9 0 0 1-18 0Z"/>
  <path fill="#263245" d="M16 21h48v38H16V21Zm2 2v4h44v-4H18Zm44 6H18v28h44V29Z"/>
</svg>
