<svg xmlns="http://www.w3.org/2000/svg" width="80" height="80" fill="currentColor" viewBox="0 0 80 80">
  <path fill="#fff" d="M21 21a5 5 0 0 1 5-5h28a5 5 0 0 1 5 5v15h3v2h-3v20h-2v3a3 3 0 0 1-3 3h-4a3 3 0 0 1-3-3v-3H33v3a3 3 0 0 1-3 3h-4a3 3 0 0 1-3-3v-3h-2V38h-3v-2h3V21Z"/>
  <path fill="#263245" d="M39 50v-8h2v8h2v-6h2v7l-1 1h-3v2h-2v-2h-3l-1-1v-7h2v6h2Z"/>
  <path fill="#263245" d="M26 16a5 5 0 0 0-5 5v15h-3v2h3v20h2v3a3 3 0 0 0 3 3h4a3 3 0 0 0 3-3v-3h14v3a3 3 0 0 0 3 3h4a3 3 0 0 0 3-3v-3h2V38h3v-2h-3V21a5 5 0 0 0-5-5H26Zm31 30h-8v6h8v4H23v-4h8v-6h-8v-6h34v6Zm0 4h-6v-2h6v2Zm-34 0v-2h6v2h-6Zm34-28H23v-1a3 3 0 0 1 3-3h28a3 3 0 0 1 3 3v1Zm-34 2h16v14H23V24Zm34 14H41V24h16v14Zm-8 23v-3h6v3a1 1 0 0 1-1 1h-4a1 1 0 0 1-1-1Zm-18-3v3a1 1 0 0 1-1 1h-4a1 1 0 0 1-1-1v-3h6Z"/>
</svg>
