<svg xmlns="http://www.w3.org/2000/svg" width="80" height="80" fill="currentColor" viewBox="0 0 80 80">
  <path fill="#fff" d="M23 20a1 1 0 1 1 2 0v1h6v-1a1 1 0 1 1 2 0v1h6v-1a1 1 0 1 1 2 0v1h6v-1a1 1 0 1 1 2 0v1h6v-1a1 1 0 1 1 2 0v1h7v38H16V21h7v-1Z"/>
  <path fill="#263245" d="M35 37a2 2 0 1 1-4 0 2 2 0 0 1 4 0Zm-2 9a2 2 0 1 0 0-4 2 2 0 0 0 0 4Zm2 5a2 2 0 1 1-4 0 2 2 0 0 1 4 0Zm5-12a2 2 0 1 0 0-4 2 2 0 0 0 0 4Zm2 5a2 2 0 1 1-4 0 2 2 0 0 1 4 0Zm-2 9a2 2 0 1 0 0-4 2 2 0 0 0 0 4Zm9-16a2 2 0 1 1-4 0 2 2 0 0 1 4 0Zm-2 9a2 2 0 1 0 0-4 2 2 0 0 0 0 4Zm9-9a2 2 0 1 1-4 0 2 2 0 0 1 4 0Zm-2 9a2 2 0 1 0 0-4 2 2 0 0 0 0 4Zm-26-2a2 2 0 1 1-4 0 2 2 0 0 1 4 0Zm-2 9a2 2 0 1 0 0-4 2 2 0 0 0 0 4Z"/>
  <path fill="#263245" d="M23 20a1 1 0 1 1 2 0v1h6v-1a1 1 0 1 1 2 0v1h6v-1a1 1 0 1 1 2 0v1h6v-1a1 1 0 1 1 2 0v1h6v-1a1 1 0 1 1 2 0v1h7v38H16V21h7v-1Zm26 3v1a1 1 0 1 1-2 0v-1h-6v1a1 1 0 1 1-2 0v-1h-6v1a1 1 0 1 1-2 0v-1h-6v1a1 1 0 1 1-2 0v-1h-5v6h44v-6h-5v1a1 1 0 1 1-2 0v-1h-6Zm-31 8v26h44V31H18Z"/>
</svg>
