<svg xmlns="http://www.w3.org/2000/svg" width="80" height="80" fill="currentColor" viewBox="0 0 80 80">
  <path fill="#fff" d="M30 20H19v5h-3v33h48V21H36.764L30 24.382V20Z"/>
  <path fill="#000" d="M58 30h-7v-2h7v2ZM33 40a7 7 0 0 1 7-7v-2a9 9 0 1 0 9 9h-2a7 7 0 1 1-14 0Z"/>
  <path fill="#000" d="M19 20h11v4.382L36.764 21H64v37H16V25h3v-5Zm2 5h7v-3h-7v3Zm16.236-2-8 4H18v7h10.464A13 13 0 0 1 40 27a13 13 0 0 1 11.536 7H62V23H37.236Zm15.137 13A12.99 12.99 0 0 1 53 40c0 7.18-5.82 13-13 13s-13-5.82-13-13c0-1.396.22-2.74.627-4H18v20h44V36h-9.627ZM29 40c0 6.075 4.925 11 11 11s11-4.925 11-11-4.925-11-11-11-11 4.925-11 11Z"/>
</svg>
