<svg xmlns="http://www.w3.org/2000/svg" width="80" height="80" fill="currentColor" viewBox="0 0 80 80">
  <path fill="#fff" d="M40 18.815 63.863 34 56 39.004v18.264a2 2 0 1 1-2 0v-6.502l-14 8.4-16-9.6V39.003L16.137 34 40 18.815Z"/>
  <path fill="#263245" d="M40 18.815 63.863 34 56 39.004v18.264a2 2 0 1 1-2 0v-6.502l-14 8.4-16-9.6V39.003L16.137 34 40 18.815ZM60.137 34 40 21.185 19.863 34 40 46.815l13.64-8.68A5.002 5.002 0 0 0 49 35h-9v-2h9a7 7 0 0 1 6.349 4.047L60.137 34ZM54 40.276l-14 8.91-14-8.91v8.158l14 8.4 14-8.4v-8.158Z"/>
</svg>
