<svg xmlns="http://www.w3.org/2000/svg" width="80" height="80" fill="currentColor" viewBox="0 0 80 80">
  <path fill="#fff" d="M29.209 16a5 5 0 0 0-4.881 3.915L22.087 30H18v2h3.642l-.588 2.648A7.001 7.001 0 0 0 17 41v14a3 3 0 0 0 3 3h1v3a3 3 0 0 0 3 3h2a3 3 0 0 0 3-3v-3h23v3a3 3 0 0 0 3 3h2a3 3 0 0 0 3-3v-3a3 3 0 0 0 3-3V41c0-2.813-1.66-5.24-4.054-6.352L58.358 32H62v-2h-4.087l-2.24-10.085A5 5 0 0 0 50.79 16H29.21Z"/>
  <path fill="#000" d="M59 52v-7.105l-12 1.2V52h12Zm-10-2v-2.095l8-.8V50h-8Zm-28-5.105 12 1.2V52H21v-7.105Zm2 2.21V50h8v-2.095l-8-.8ZM40 48c1.657 0 3-.895 3-2s-1.343-2-3-2-3 .895-3 2 1.343 2 3 2Z"/>
  <path fill="#000" d="M29.209 16a5 5 0 0 0-4.881 3.915L22.087 30H18v2h3.642l-.588 2.648A7.001 7.001 0 0 0 17 41v14a3 3 0 0 0 3 3h1v3a3 3 0 0 0 3 3h2a3 3 0 0 0 3-3v-3h23v3a3 3 0 0 0 3 3h2a3 3 0 0 0 3-3v-3a3 3 0 0 0 3-3V41c0-2.813-1.66-5.24-4.054-6.352L58.358 32H62v-2h-4.087l-2.24-10.085A5 5 0 0 0 50.79 16H29.21ZM54 58h4v3a1 1 0 0 1-1 1h-2a1 1 0 0 1-1-1v-3Zm6-2H20a1 1 0 0 1-1-1V41a5 5 0 0 1 5-5h32a5 5 0 0 1 5 5v14a1 1 0 0 1-1 1Zm-37 5v-3h4v3a1 1 0 0 1-1 1h-2a1 1 0 0 1-1-1Zm33.753-27H53.93a7.001 7.001 0 0 0-13.858 0H23.247l3.033-13.65A3 3 0 0 1 29.21 18h21.58a3 3 0 0 1 2.929 2.35L56.753 34ZM47 30a5.002 5.002 0 0 1 4.9 4h-9.8a5.002 5.002 0 0 1 4.9-4Z"/>
</svg>
