<svg xmlns="http://www.w3.org/2000/svg" width="80" height="80" fill="currentColor" viewBox="0 0 80 80">
  <path fill="#fff" d="M64 25H16v30h48V25Z"/>
  <path fill="#000" d="M37 35h2v-1h2v1h4v2h-4v2h2a3 3 0 1 1 0 6h-2v1h-2v-1h-4v-2h4v-2h-2a3 3 0 1 1 0-6Zm-1 3a1 1 0 0 0 1 1h2v-2h-2a1 1 0 0 0-1 1Zm5 5h2a1 1 0 1 0 0-2h-2v2Z"/>
  <path fill="#000" d="M40 29c-5.62 0-10 5.027-10 11s4.38 11 10 11 10-5.027 10-11-4.38-11-10-11Zm-8 11c0-5.072 3.678-9 8-9s8 3.928 8 9-3.678 9-8 9-8-3.928-8-9Zm25.5 10c-.828 0-1.5-.895-1.5-2s.672-2 1.5-2 1.5.895 1.5 2-.672 2-1.5 2ZM21 48c0 1.105.672 2 1.5 2s1.5-.895 1.5-2-.672-2-1.5-2-1.5.895-1.5 2Zm36.5-14c-.828 0-1.5-.895-1.5-2s.672-2 1.5-2 1.5.895 1.5 2-.672 2-1.5 2ZM21 32c0 1.105.672 2 1.5 2s1.5-.895 1.5-2-.672-2-1.5-2-1.5.895-1.5 2Z"/>
  <path fill="#000" d="M64 25H16v30h48V25ZM18 53V27h44v26H18Z"/>
</svg>
