<svg xmlns="http://www.w3.org/2000/svg" width="80" height="80" fill="currentColor" viewBox="0 0 80 80">
  <path fill="#fff" d="M64 21H16v38h48V21Z"/>
  <path fill="#263245" d="M29 37h22v-2H29v2Zm2 9h-9v-2h9v2Zm18 0h9v-2h-9v2Zm-18 4h-9v-2h9v2Zm18 0h9v-2h-9v2Zm9-18H22v-2h36v2ZM41.58 42.137 40 40.608l-1.58 1.529-2.177-.308-.38 2.165-1.941 1.03.965 1.976-.965 1.975 1.942 1.03.38 2.165 2.176-.307L40 53.39l1.58-1.528 2.177.307.38-2.165 1.942-1.03L45.113 47l.966-1.975-1.942-1.03-.38-2.166-2.177.308Zm-2.472 2.117.892-.863.892.863 1.23-.174.214 1.223 1.096.582L42.887 47l.545 1.115-1.096.582-.215 1.222-1.229-.174-.892.863-.892-.863-1.23.174-.214-1.222-1.096-.582.545-1.115-.545-1.115 1.096-.582.215-1.223 1.229.174Z"/>
  <path fill="#263245" d="M64 21H16v38h48V21ZM18 57V23h44v34H18Z"/>
</svg>
