<svg xmlns="http://www.w3.org/2000/svg" width="80" height="80" fill="currentColor" viewBox="0 0 80 80">
  <path fill="#fff" d="M28.753 14.248 40 17.262l11.247-3.014 8.501 27.727.005.017a7.001 7.001 0 0 1-4.002 8.246l2.096 7.824c1.22-.268 2.464-.43 3.718-.484l.087 1.998a19.745 19.745 0 0 0-8.275 2.217l-.924-1.774a21.748 21.748 0 0 1 3.462-1.44l-2.096-7.824a7.001 7.001 0 0 1-7.59-5.14l-.004-.017L40 18.536l-6.225 27.062-.005.017a7.002 7.002 0 0 1-7.589 5.14l-2.096 7.824c1.19.379 2.348.86 3.462 1.44l-.924 1.774a19.744 19.744 0 0 0-8.275-2.217l.087-1.998c1.254.054 2.498.216 3.718.484l2.096-7.824a7.002 7.002 0 0 1-4.002-8.246l.005-.017 8.5-27.727Z"/>
  <path fill="#263245" d="M28.753 14.248 40 17.262l11.247-3.014 8.501 27.727.005.017a7.001 7.001 0 0 1-4.002 8.246l2.096 7.824c1.22-.268 2.464-.43 3.718-.484l.087 1.998a19.745 19.745 0 0 0-8.275 2.217l-.924-1.774a21.748 21.748 0 0 1 3.462-1.44l-2.096-7.824a7.001 7.001 0 0 1-7.59-5.14l-.004-.017L40 18.536l-6.225 27.062-.005.017a7.002 7.002 0 0 1-7.589 5.14l-2.096 7.824c1.19.379 2.348.86 3.462 1.44l-.924 1.774a19.744 19.744 0 0 0-8.275-2.217l.087-1.998c1.254.054 2.498.216 3.718.484l2.096-7.824a7.002 7.002 0 0 1-4.002-8.246l.005-.017 8.5-27.727Zm1.346 2.431-4.966 16.2c1.867.24 3.294-.33 4.78-1.003l.349-.16c1.4-.643 2.989-1.372 4.923-1.168l2.71-11.78-7.796-2.089Zm4.633 15.837c-1.255-.064-2.353.435-3.754 1.073l-.24.108c-1.648.748-3.591 1.55-6.198 1.115l-2.365 7.714a5 5 0 0 0 9.659 2.588l2.898-12.598ZM49.9 16.68l-7.795 2.089 2.71 11.78c1.933-.204 3.521.525 4.922 1.168l.35.16c1.485.674 2.912 1.244 4.78 1.003L49.9 16.68Zm-4.633 15.837 2.898 12.598a5 5 0 0 0 9.66-2.588l-2.366-7.714c-2.607.434-4.55-.367-6.199-1.115l-.24-.108c-1.4-.638-2.498-1.137-3.753-1.073Z"/>
</svg>
