<svg xmlns="http://www.w3.org/2000/svg" width="80" height="80" fill="currentColor" viewBox="0 0 80 80">
  <path fill="#fff" d="M40 16c-13.255 0-24 10.745-24 24s10.745 24 24 24 24-10.745 24-24-10.745-24-24-24Z"/>
  <path fill="#263245" d="m34.951 49.463 16.756-16.756-1.414-1.414-15.244 15.244-6.296-7.195-1.506 1.317 7.704 8.804Z"/>
  <path fill="#263245" d="M40 16c-13.255 0-24 10.745-24 24s10.745 24 24 24 24-10.745 24-24-10.745-24-24-24ZM18 40c0-12.15 9.85-22 22-22s22 9.85 22 22-9.85 22-22 22-22-9.85-22-22Z"/>
</svg>
