<svg xmlns="http://www.w3.org/2000/svg" width="80" height="80" fill="currentColor" viewBox="0 0 80 80">
  <path fill="#fff" d="m58.121 19.707 2.293-2.293-2.828-2.828-2.293 2.293L54 15.586 36.586 33H16v26h48V33H53.414l8.293-8.293-1.414-1.414L57 26.586 55.414 25l4-4-1.293-1.293ZM50.586 33h-3.172L54 26.414 55.586 28l-5 5Z"/>
  <path fill="#263245" d="M59 46H47v2h12v-2Z"/>
  <path fill="#263245" d="m58.121 19.707 2.293-2.293-2.828-2.828-2.293 2.293L54 15.586 36.586 33H16v26h48V33H53.414l8.293-8.293-1.414-1.414L57 26.586 55.414 25l4-4-1.293-1.293ZM18 35h16.586L22.08 47.507 20.78 54H59v-2H28.414l17-17h3.172l-1.293 1.293 1.414 1.414L51.414 35H62v22H18V35Zm32.586-2h-3.172L54 26.414 55.586 28l-5 5Zm3.121-14.293 2.586 2.586L46 31.586 43.414 29l10.293-10.293ZM44.586 33 26.507 51.08l-3.232.646.646-3.232 9.04-9.04L42 30.415 44.585 33Z"/>
</svg>
