<svg xmlns="http://www.w3.org/2000/svg" width="80" height="80" fill="currentColor" viewBox="0 0 80 80">
  <path fill="#fff" d="M44.9 18a5.002 5.002 0 0 0-9.8 0H21v44h38V18H44.9Z"/>
  <path fill="#000" d="M41 19a1 1 0 1 1-2 0 1 1 0 0 1 2 0ZM31 34h8v-2h-8v2Zm0 5v-2h18v2H31Zm0 3v2h18v-2H31Z"/>
  <path fill="#000" d="M44.9 18a5.002 5.002 0 0 0-9.8 0H21v44h38V18H44.9ZM40 16a3 3 0 0 1 3 3v1h4v3a1 1 0 0 1-1 1H34a1 1 0 0 1-1-1v-3h4v-1a3 3 0 0 1 3-3Zm-9 6h-6v36h30V22h-6v-2h8v40H23V20h8v2Zm15 4a3.001 3.001 0 0 0 2.83-2H53v32H27V24h4.17A3.001 3.001 0 0 0 34 26h12Z"/>
</svg>
