<svg xmlns="http://www.w3.org/2000/svg" width="80" height="80" fill="currentColor" viewBox="0 0 80 80">
  <path fill="#fff" d="M35.1 18a5.002 5.002 0 0 1 9.8 0H59v44H21V18h14.1Z"/>
  <path fill="#263245" d="M41 19a1 1 0 1 1-2 0 1 1 0 0 1 2 0Zm-8 29v2h14v-2H33Zm6-17v6h-6v2h6v6h2v-6h6v-2h-6v-6h-2Z"/>
  <path fill="#263245" d="M35.1 18a5.002 5.002 0 0 1 9.8 0H59v44H21V18h14.1Zm4.9-2a3 3 0 0 0-3 3v1h-4v3a1 1 0 0 0 1 1h12a1 1 0 0 0 1-1v-3h-4v-1a3 3 0 0 0-3-3Zm9 6h6v36H25V22h6v-2h-8v40h34V20h-8v2Zm-22 2v32h26V24h-4.17A3.001 3.001 0 0 1 46 26H34a3.001 3.001 0 0 1-2.83-2H27Z"/>
</svg>
