<svg xmlns="http://www.w3.org/2000/svg" width="80" height="80" fill="currentColor" viewBox="0 0 80 80">
  <path fill="#fff" d="M16 40c0-13.255 10.745-24 24-24s24 10.745 24 24-10.745 24-24 24-24-10.745-24-24Z"/>
  <path fill="#000" d="m41 39.586 4.707 4.707-1.414 1.414L39 40.414V27h2v12.586Zm-9.5-9.5L30.086 31.5l1.414 1.414 1.414-1.414-1.414-1.414Zm17 0 1.414 1.414-1.414 1.414-1.414-1.414 1.414-1.414ZM53 39h-2v2h2v-2Zm-26 0h2v2h-2v-2Zm14 14v-2h-2v2h2Zm-9.5-5.914 1.414 1.414-1.414 1.414-1.414-1.414 1.414-1.414ZM49.914 48.5 48.5 47.086 47.086 48.5l1.414 1.414 1.414-1.414Z"/>
  <path fill="#000" d="M21 40c0-10.493 8.507-19 19-19s19 8.507 19 19-8.507 19-19 19-19-8.507-19-19Zm19-17c-9.389 0-17 7.611-17 17s7.611 17 17 17 17-7.611 17-17-7.611-17-17-17Z"/>
  <path fill="#000" d="M16 40c0-13.255 10.745-24 24-24s24 10.745 24 24-10.745 24-24 24-24-10.745-24-24Zm24-22c-12.15 0-22 9.85-22 22s9.85 22 22 22 22-9.85 22-22-9.85-22-22-22Z"/>
</svg>
