<svg xmlns="http://www.w3.org/2000/svg" width="80" height="80" fill="currentColor" viewBox="0 0 80 80">
  <path fill="#fff" d="M37 53h-9c-7.18 0-13-5.82-13-13s5.82-13 13-13c.716 0 1.42.058 2.106.17C33.066 21.71 38.85 18 45.5 18 55.165 18 63 25.835 63 35.5c0 6.981-4.088 13.007-10 15.816v8.77l4.793-4.793 1.414 1.414L52 63.914l-7.207-7.207 1.414-1.414L51 60.086v-7.968a17.48 17.48 0 0 1-5.5.882H39v9h-2v-9Z"/>
  <path fill="#263245" d="M37 53h-9c-7.18 0-13-5.82-13-13s5.82-13 13-13c.716 0 1.42.058 2.106.17C33.066 21.71 38.85 18 45.5 18 55.165 18 63 25.835 63 35.5c0 6.981-4.088 13.007-10 15.816v8.77l4.793-4.793 1.414 1.414L52 63.914l-7.207-7.207 1.414-1.414L51 60.086v-7.968a17.48 17.48 0 0 1-5.5.882H39v9h-2v-9Zm-5.448-24.269-.347.713-.773-.174A11.043 11.043 0 0 0 28 29c-6.075 0-11 4.925-11 11s4.925 11 11 11h9v-9.586l-5.293 5.293-1.414-1.414L38 37.586l7.707 7.707-1.414 1.414L39 41.414V51h6.5c1.937 0 3.79-.355 5.5-1.004V40h2v9.068c4.77-2.643 8-7.728 8-13.568C61 26.94 54.06 20 45.5 20c-6.132 0-11.434 3.56-13.948 8.731Z"/>
</svg>
