<svg xmlns="http://www.w3.org/2000/svg" width="80" height="80" fill="currentColor" viewBox="0 0 80 80">
  <path fill="#fff" d="M44 14v1a5 5 0 0 1-5 5H29a3 3 0 0 0-3 3v1h-2v-1a5 5 0 0 1 5-5h10a3 3 0 0 0 3-3v-1h2ZM19 28h36v5h7a5 5 0 0 1 5 5v10a5 5 0 0 1-5 5h-7a9 9 0 0 1-9 9H28a9 9 0 0 1-9-9V28Zm36 11v8h6v-8h-6Zm-5-20v-1h-2v1a3 3 0 0 1-3 3H35a4 4 0 0 0-4 4h2a2 2 0 0 1 2-2h10a5 5 0 0 0 5-5Z"/>
  <path fill="#000" d="M44 14v1a5 5 0 0 1-5 5H29a3 3 0 0 0-3 3v1h-2v-1a5 5 0 0 1 5-5h10a3 3 0 0 0 3-3v-1h2Zm-8 34V37h2v11h3v-9h2v10l-1 1h-4v3h-2v-3h-4l-1-1V39h2v9h3Z"/>
  <path fill="#000" d="M19 28h36v5h7a5 5 0 0 1 5 5v10a5 5 0 0 1-5 5h-7a9 9 0 0 1-9 9H28a9 9 0 0 1-9-9V28Zm36 9h6a2 2 0 0 1 2 2v8a2 2 0 0 1-2 2h-6v2h7a3 3 0 0 0 3-3V38a3 3 0 0 0-3-3h-7v2Zm0 2v8h6v-8h-6Zm-2-9H21v23a7 7 0 0 0 7 7h18a7 7 0 0 0 7-7V30Zm-3-11v-1h-2v1a3 3 0 0 1-3 3H35a4 4 0 0 0-4 4h2a2 2 0 0 1 2-2h10a5 5 0 0 0 5-5Z"/>
</svg>
