<svg xmlns="http://www.w3.org/2000/svg" width="80" height="80" fill="currentColor" viewBox="0 0 80 80">
  <path fill="#fff" d="m25.651 18.272-1.476 5.906A2 2 0 0 0 23 26v4h2.136l5 34h19.728l5-34H57v-4a2 2 0 0 0-1.175-1.822l-1.476-5.906A3 3 0 0 0 51.439 16H28.561a3 3 0 0 0-2.91 2.272Z"/>
  <path fill="#000" d="M40 37a7 7 0 1 0 0 14 7 7 0 0 0 0-14Zm-5 7a5 5 0 1 1 10 0 5 5 0 0 1-10 0Z"/>
  <path fill="#000" d="m25.651 18.272-1.476 5.906A2 2 0 0 0 23 26v4h2.136l5 34h19.728l5-34H57v-4a2 2 0 0 0-1.175-1.822l-1.476-5.906A3 3 0 0 0 51.439 16H28.561a3 3 0 0 0-2.91 2.272Zm26.758.486L53.719 24H26.281l1.31-5.242a1 1 0 0 1 .97-.758h22.877a1 1 0 0 1 .97.758ZM25 28v-2h30v2H25Zm6.864 34-4.706-32h25.684l-4.706 32H31.864Z"/>
</svg>
