<svg xmlns="http://www.w3.org/2000/svg" width="80" height="80" fill="currentColor" viewBox="0 0 80 80">
  <path fill="#fff" d="M50 12H39v11.303l-18.33 6.753-2.985.995.632 1.898L20 32.387V39h3v11h-5v10h44V50h-5V39h3v-6.613l1.684.562.632-1.898-2.985-.995-18.33-6.753V20h9v-8Z"/>
  <path fill="#263245" d="M40 34.5a3 3 0 1 0 0-6 3 3 0 0 0 0 6Z"/>
  <path fill="#263245" d="M50 12H39v11.303l-18.33 6.753-2.985.995.632 1.898L20 32.387V39h3v11h-5v10h44V50h-5V39h3v-6.613l1.684.562.632-1.898-2.985-.995-18.33-6.753V20h9v-8ZM22 31.697l18-6.631 18 6.631V37H22v-5.303ZM25 50V39h6v11h-6Zm8 0V39h6v11h-6Zm8 0V39h6v11h-6Zm8 0V39h6v11h-6Zm-1-32h-7v-4h7v4ZM20 58v-6h40v6H20Z"/>
</svg>
