<svg xmlns="http://www.w3.org/2000/svg" width="80" height="80" fill="currentColor" viewBox="0 0 80 80">
  <path fill="#fff" d="M16 21h48v38H16V21Z"/>
  <path fill="#000" d="M22 25a1 1 0 1 1-2 0 1 1 0 0 1 2 0Zm3 1a1 1 0 1 0 0-2 1 1 0 0 0 0 2Zm5-1a1 1 0 1 1-2 0 1 1 0 0 1 2 0Zm4 25h2v2h-2a4 4 0 0 1-4-4v-2a2 2 0 0 0-2-2v-2a2 2 0 0 0 2-2v-2a4 4 0 0 1 4-4h2v2h-2a2 2 0 0 0-2 2v2a3.99 3.99 0 0 1-1.354 3A3.99 3.99 0 0 1 32 46v2a2 2 0 0 0 2 2Zm12-14h-2v-2h2a4 4 0 0 1 4 4v2a2 2 0 0 0 2 2v2a2 2 0 0 0-2 2v2a4 4 0 0 1-4 4h-2v-2h2a2 2 0 0 0 2-2v-2a3.99 3.99 0 0 1 1.354-3A3.99 3.99 0 0 1 48 40v-2a2 2 0 0 0-2-2Z"/>
  <path fill="#000" d="M16 21h48v38H16V21Zm2 2v4h44v-4H18Zm44 6H18v28h44V29Z"/>
</svg>
