<svg xmlns="http://www.w3.org/2000/svg" width="80" height="80" fill="currentColor" viewBox="0 0 80 80">
  <path fill="#fff" d="M56 14a4 4 0 0 0-3.7 5.524l-9.8 7.352A3.983 3.983 0 0 0 40 26a3.993 3.993 0 0 0-3.148 1.531l-8.902-3.894a4 4 0 1 0-.802 1.832l8.902 3.895a4 4 0 1 0 7.649-.888l9.803-7.352A4 4 0 1 0 56 14Z"/>
  <path fill="#fff" d="M50 28v32h-4V40H34v20h-4V33H18v27h-1v2h46v-2h-1V28H50Z"/>
  <path fill="#000" d="M56 14a4 4 0 1 1-2.498 7.124l-9.803 7.352a4 4 0 1 1-7.649.888l-8.902-3.895a4 4 0 1 1 .802-1.832l8.902 3.894A3.993 3.993 0 0 1 40 26c.945 0 1.814.328 2.498.876l9.803-7.352A4 4 0 0 1 56 14Zm-2 4a2 2 0 1 0 4 0 2 2 0 0 0-4 0Zm-30 3a2 2 0 1 0 0 4 2 2 0 0 0 0-4Zm16 7a2 2 0 1 0 0 4 2 2 0 0 0 0-4Z"/>
  <path fill="#000" d="M50 28v32h-4V40H34v20h-4V33H18v27h-1v2h46v-2h-1V28H50Zm10 32h-8V30h8v30Zm-40 0V35h8v25h-8Zm16 0V42h8v18h-8Z"/>
</svg>
