<svg xmlns="http://www.w3.org/2000/svg" width="80" height="80" fill="currentColor" viewBox="0 0 80 80">
  <path fill="#fff" d="m29 27 11 11 11-11-11-11-11 11Zm13 13 11 11 11-11-11-11-11 11Zm-26 0 11-11 11 11-11 11-11-11Zm13 13 11 11 11-11-11-11-11 11Z"/>
  <path fill="#000" d="m29 27 11 11 11-11-11-11-11 11Zm19.172 0L40 35.172 31.828 27 40 18.828 48.172 27ZM42 40l11 11 11-11-11-11-11 11Zm19.172 0L53 48.172 44.828 40 53 31.828 61.172 40ZM16 40l11-11 11 11-11 11-11-11Zm11 8.172L35.172 40 27 31.828 18.828 40 27 48.172ZM29 53l11 11 11-11-11-11-11 11Zm19.172 0L40 61.172 31.828 53 40 44.828 48.172 53Z"/>
</svg>
