<svg xmlns="http://www.w3.org/2000/svg" width="80" height="80" fill="currentColor" viewBox="0 0 80 80">
  <path fill="#fff" d="M46.236 40 40 48.07V31.93L46.236 40Zm-5.2 10 6.464-8.364L53.964 50H41.035Zm7.728-10L55 48.07V31.93L48.764 40ZM47.5 38.364 53.964 30H41.035l6.464 8.364Z"/>
  <path fill="#fff" d="M18 25v30h44V25H18Zm39 3H38v24h19V28ZM34 51H23v-2h11v2Zm0-4H23v-2h11v2Zm-6.5-9v-9h2v9h2v-7h2v8l-1 1h-3v3h-2v-3h-3l-1-1v-8h2v7h2Z"/>
  <path fill="#000" d="M57 28H38v24h19V28ZM46.236 40 40 48.07V31.93L46.236 40Zm-5.2 10 6.464-8.364L53.964 50H41.035Zm7.728-10L55 31.93v16.14L48.764 40ZM47.5 38.364 41.036 30h12.928L47.5 38.364ZM34 51H23v-2h11v2Zm-11-4h11v-2H23v2Zm4.5-9v-9h2v9h2v-7h2v8l-1 1h-3v3h-2v-3h-3l-1-1v-8h2v7h2Z"/>
  <path fill="#000" d="M64 23H16v34h48V23ZM18 55V25h44v30H18Z"/>
</svg>
