<svg xmlns="http://www.w3.org/2000/svg" width="80" height="80" fill="currentColor" viewBox="0 0 80 80">
  <path fill="#fff" d="M17 22a5 5 0 0 1 5-5h32a5 5 0 0 1 5 5v31h2v5a5 5 0 0 1-5 5H30a5 5 0 0 1-5-5V27h-8v-5Z"/>
  <path fill="#000" d="M17 22a5 5 0 0 1 5-5h32a5 5 0 0 1 5 5v31h2v5a5 5 0 0 1-5 5H30a5 5 0 0 1-5-5V27h-8v-5Zm10 36a3 3 0 1 0 6 0v-5h24V22a3 3 0 0 0-3-3H26c.628.836 1 1.874 1 3v36Zm-5-39a3 3 0 0 0-3 3v3h6v-3a3 3 0 0 0-3-3Zm37 36H35v3a4.978 4.978 0 0 1-1 3h22a3 3 0 0 0 3-3v-3Zm-7-28H32v-2h20v2Zm0 5H32v-2h20v2Zm-10 4.109 1.58 1.528 2.177-.308.38 2.166 1.941 1.03-.965 1.975.965 1.975-1.941 1.03-.38 2.166-2.177-.308L42 48.89l-1.58-1.528-2.177.308-.38-2.166-1.941-1.03.965-1.975-.965-1.975 1.941-1.03.38-2.166 2.177.308L42 36.11Zm0 2.782-.892.863-1.23-.173-.214 1.222-1.096.582.545 1.115-.545 1.115 1.096.582.215 1.222 1.229-.173.892.863.892-.863 1.23.173.214-1.222 1.096-.582-.545-1.115.545-1.115-1.096-.582-.215-1.222-1.229.173-.892-.863Z"/>
</svg>
