<svg xmlns="http://www.w3.org/2000/svg" width="80" height="80" fill="currentColor" viewBox="0 0 80 80">
  <path fill="#fff" d="M52.217 18.024c-9.143-2.032-15.291-2.032-24.434 0l-.783.174V21h-7v13a7 7 0 0 0 7 7h1.464c2.023 3.88 5.946 6.613 10.536 6.962V51h-6v6h-5v7h24v-7h-5v-6h-6v-3.038c4.59-.349 8.513-3.081 10.536-6.962H53a7 7 0 0 0 7-7V21h-7v-2.802l-.783-.174ZM27.627 39H27a5 5 0 0 1-5-5V23h5v12c0 1.396.22 2.74.627 4ZM53 39h-.627A12.99 12.99 0 0 0 53 35V23h5v11a5 5 0 0 1-5 5Z"/>
  <path fill="#263245" d="M39 39v-1h-5v-2h5v-3h-2.5a3.5 3.5 0 1 1 0-7H39v-1h2v1h5v2h-5v3h2.5a3.5 3.5 0 1 1 0 7H41v1h-2Zm4.5-3a1.5 1.5 0 0 0 0-3H41v3h2.5Zm-7-8a1.5 1.5 0 0 0 0 3H39v-3h-2.5Z"/>
  <path fill="#263245" d="M52.217 18.024c-9.143-2.032-15.291-2.032-24.434 0l-.783.174V21h-7v13a7 7 0 0 0 7 7h1.464c2.023 3.88 5.946 6.613 10.536 6.962V51h-6v6h-5v7h24v-7h-5v-6h-6v-3.038c4.59-.349 8.513-3.081 10.536-6.962H53a7 7 0 0 0 7-7V21h-7v-2.802l-.783-.174ZM29 35V19.806c8.167-1.741 13.833-1.741 22 0V35c0 6.075-4.925 11-11 11s-11-4.925-11-11Zm-1.373 4H27a5 5 0 0 1-5-5V23h5v12c0 1.396.22 2.74.627 4ZM53 39h-.627A12.99 12.99 0 0 0 53 35V23h5v11a5 5 0 0 1-5 5ZM30 59h20v3H30v-3Zm15-2H35v-4h10v4Z"/>
</svg>
