<svg xmlns="http://www.w3.org/2000/svg" width="80" height="80" fill="currentColor" viewBox="0 0 80 80">
  <path fill="#fff" d="M16 40c0-13.255 10.745-24 24-24s24 10.745 24 24-10.745 24-24 24-24-10.745-24-24Z"/>
  <path fill="#263245" d="M39 28h-7.5a6.5 6.5 0 1 0 0 13H39v9h-8.133a2 2 0 0 1-2-2h-2a4 4 0 0 0 4 4H39v3h2v-3h7.5a6.5 6.5 0 1 0 0-13H41v-9h8a2 2 0 0 1 2 2h2a4 4 0 0 0-4-4h-8v-3h-2v3Zm-7.5 2H39v9h-7.5a4.5 4.5 0 1 1 0-9ZM41 41h7.5a4.5 4.5 0 1 1 0 9H41v-9Z"/>
  <path fill="#263245" d="M16 40c0-13.255 10.745-24 24-24s24 10.745 24 24-10.745 24-24 24-24-10.745-24-24Zm24-22c-12.15 0-22 9.85-22 22s9.85 22 22 22 22-9.85 22-22-9.85-22-22-22Z"/>
</svg>
