<svg xmlns="http://www.w3.org/2000/svg" width="80" height="80" fill="currentColor" viewBox="0 0 80 80">
  <path fill="#fff" d="m40 13.923 10.383 4.153 3.51 1.505-.787 1.838L51 20.516V24h13v36H16V24h13v-3.484l-2.106.903-.788-1.838 3.511-1.505L40 13.923Z"/>
  <path fill="#000" d="M40 28a3 3 0 1 0 0-6 3 3 0 0 0 0 6Z"/>
  <path fill="#000" d="m40 13.923 10.383 4.153 3.51 1.505-.787 1.838L51 20.516V24h13v36H16V24h13v-3.484l-2.106.903-.788-1.838 3.511-1.505L40 13.923ZM51 34H29v-8H18v12h44V26H51v8ZM31 19.677V32h18V19.677l-9-3.6-9 3.6ZM62 40h-3v13H21V40h-3v18h44V40Zm-39 0v11h7V40h-7Zm9 0v11h7V40h-7Zm9 0v11h7V40h-7Zm9 0v11h7V40h-7Z"/>
</svg>
