<svg xmlns="http://www.w3.org/2000/svg" width="80" height="80" fill="currentColor" viewBox="0 0 80 80">
  <path fill="#fff" d="M40 16c-13.255 0-24 10.745-24 24s10.745 24 24 24 24-10.745 24-24-10.745-24-24-24Z"/>
  <path fill="#000" d="M40 45c3.89 0 6.901 2.589 8.044 6.295l1.912-.59C48.596 46.298 44.903 43 40 43c-4.902 0-8.596 3.297-9.956 7.706l1.912.589C33.098 47.589 36.11 45 40 45Zm-4-10a3 3 0 1 1-6 0 3 3 0 0 1 6 0Zm11 3a3 3 0 1 0 0-6 3 3 0 0 0 0 6Z"/>
  <path fill="#000" d="M40 16c-13.255 0-24 10.745-24 24s10.745 24 24 24 24-10.745 24-24-10.745-24-24-24ZM18 40c0-12.15 9.85-22 22-22s22 9.85 22 22-9.85 22-22 22-22-9.85-22-22Z"/>
</svg>
