<svg xmlns="http://www.w3.org/2000/svg" width="80" height="80" fill="currentColor" viewBox="0 0 80 80">
  <path fill="#fff" d="M48 13a6 6 0 1 0 0 12 6 6 0 0 0 0-12ZM28 23a6 6 0 1 0 0 12 6 6 0 0 0 0-12Z"/>
  <path fill="#fff" d="M18 45a7 7 0 0 1 7-7h6c1.959 0 3.73.804 5 2.101V36.5a8.5 8.5 0 0 1 8.5-8.5H53a7.001 7.001 0 0 1 6.38 4.114 5.5 5.5 0 0 1 3.609 10.292A6.994 6.994 0 0 1 60 47.746V61H18V45Z"/>
  <path fill="#263245" d="M48 13a6 6 0 1 0 0 12 6 6 0 0 0 0-12Zm-4 6a4 4 0 1 1 8 0 4 4 0 0 1-8 0Zm-16 4a6 6 0 1 0 0 12 6 6 0 0 0 0-12Zm-4 6a4 4 0 1 1 8 0 4 4 0 0 1-8 0Z"/>
  <path fill="#263245" d="M18 45a7 7 0 0 1 7-7h6c1.959 0 3.73.804 5 2.101V36.5a8.5 8.5 0 0 1 8.5-8.5H53a7.001 7.001 0 0 1 6.38 4.114 5.5 5.5 0 0 1 3.609 10.292A6.994 6.994 0 0 1 60 47.746V61H18V45Zm18 14V45a5 5 0 0 0-5-5h-6a5 5 0 0 0-5 5v14h16Zm2 0h20V48.71a7.001 7.001 0 0 1-2 .29h-7.128a5.872 5.872 0 0 1-.965-11.665l7.267-1.211a5.51 5.51 0 0 1 2.352-3.252A5 5 0 0 0 53 30h-8.5a6.5 6.5 0 0 0-6.5 6.5V59Zm22.5-16a5.501 5.501 0 0 1-5.46-4.826l-6.804 1.134A3.872 3.872 0 0 0 48.872 47H56a5.002 5.002 0 0 0 4.903-4.014A5.37 5.37 0 0 1 60.5 43ZM57 37.5a3.5 3.5 0 1 0 7 0 3.5 3.5 0 0 0-7 0Z"/>
</svg>
