<svg xmlns="http://www.w3.org/2000/svg" width="80" height="80" fill="currentColor" viewBox="0 0 80 80">
  <path fill="#fff" d="M16 40c0-13.255 10.745-24 24-24s24 10.745 24 24-10.745 24-24 24-24-10.745-24-24Z"/>
  <path fill="#000" d="M31 33a9 9 0 1 1 18 0 9 9 0 0 1-8 8.945V48h7v2h-7v7h-2v-7h-7v-2h7v-6.055A9 9 0 0 1 31 33Zm9-7a7 7 0 1 0 0 14 7 7 0 0 0 0-14Z"/>
  <path fill="#000" d="M16 40c0-13.255 10.745-24 24-24s24 10.745 24 24-10.745 24-24 24-24-10.745-24-24Zm24-22c-12.15 0-22 9.85-22 22s9.85 22 22 22 22-9.85 22-22-9.85-22-22-22Z"/>
</svg>
