<svg xmlns="http://www.w3.org/2000/svg" width="80" height="80" fill="currentColor" viewBox="0 0 80 80">
  <path fill="#fff" d="M19 62V24h2v38h-2Zm43-10H23v-2h39v2Zm0-4H23v-2h39v2Zm0-4H23v-2h39v2Zm0-4H23v-2h18V26h21v2H43v2h19v2H43v2h19v2H43v2h19v2ZM18 20a2 2 0 1 1 4 0 2 2 0 0 1-4 0Zm8 7a1 1 0 1 1-2 0 1 1 0 0 1 2 0Zm0 4a1 1 0 1 1-2 0 1 1 0 0 1 2 0Zm0 4a1 1 0 1 1-2 0 1 1 0 0 1 2 0Zm6-8a1 1 0 1 1-2 0 1 1 0 0 1 2 0Zm0 4a1 1 0 1 1-2 0 1 1 0 0 1 2 0Z"/>
  <path fill="#fff" d="M32 35a1 1 0 1 1-2 0 1 1 0 0 1 2 0Zm-3-6a1 1 0 1 1-2 0 1 1 0 0 1 2 0Zm0 4a1 1 0 1 1-2 0 1 1 0 0 1 2 0Zm9-6a1 1 0 1 1-2 0 1 1 0 0 1 2 0Zm0 4a1 1 0 1 1-2 0 1 1 0 0 1 2 0Zm0 4a1 1 0 1 1-2 0 1 1 0 0 1 2 0Zm-3-6a1 1 0 1 1-2 0 1 1 0 0 1 2 0Zm0 4a1 1 0 1 1-2 0 1 1 0 0 1 2 0Z"/>
  <path fill="#fff" d="M23 22.646a4 4 0 1 0-6 0V64h6V54h41V24H23v-1.354Z"/>
  <path fill="#000" d="M24 20a3.99 3.99 0 0 1-1 2.646V24h41v30H23v10h-6V22.646A4 4 0 1 1 24 20Zm-3 4h-2v38h2V24Zm2 28h39v-2H23v2Zm0-4h39v-2H23v2Zm0-4h39v-2H23v2Zm0-4h39v-2H43v-2h19v-2H43v-2h19v-2H43v-2h19v-2H41v12H23v2Zm-3-22a2 2 0 1 0 0 4 2 2 0 0 0 0-4Zm5 10a1 1 0 1 0 0-2 1 1 0 0 0 0 2Zm0 4a1 1 0 1 0 0-2 1 1 0 0 0 0 2Zm0 4a1 1 0 1 0 0-2 1 1 0 0 0 0 2Zm6-8a1 1 0 1 0 0-2 1 1 0 0 0 0 2Zm0 4a1 1 0 1 0 0-2 1 1 0 0 0 0 2Zm0 4a1 1 0 1 0 0-2 1 1 0 0 0 0 2Zm-3-6a1 1 0 1 0 0-2 1 1 0 0 0 0 2Zm0 4a1 1 0 1 0 0-2 1 1 0 0 0 0 2Zm9-6a1 1 0 1 0 0-2 1 1 0 0 0 0 2Zm0 4a1 1 0 1 0 0-2 1 1 0 0 0 0 2Zm0 4a1 1 0 1 0 0-2 1 1 0 0 0 0 2Zm-3-6a1 1 0 1 0 0-2 1 1 0 0 0 0 2Zm0 4a1 1 0 1 0 0-2 1 1 0 0 0 0 2Z"/>
</svg>
