<svg xmlns="http://www.w3.org/2000/svg" width="80" height="80" fill="currentColor" viewBox="0 0 80 80">
  <path fill="#fff" d="M40 16c-.576 0-1.257.172-1.96.438-.721.272-1.537.671-2.402 1.188-1.731 1.032-3.706 2.561-5.57 4.568C26.333 26.213 23 32.196 23 40s3.334 13.787 7.067 17.806c1.865 2.007 3.84 3.536 5.57 4.568.866.517 1.682.916 2.403 1.188.703.266 1.384.438 1.96.438.576 0 1.257-.172 1.96-.438a15.447 15.447 0 0 0 2.402-1.188c1.731-1.032 3.706-2.561 5.57-4.568C53.667 53.787 57 47.804 57 40s-3.334-13.787-7.067-17.806c-1.865-2.007-3.84-3.536-5.57-4.568a15.447 15.447 0 0 0-2.403-1.188C41.257 16.172 40.576 16 40 16Z"/>
  <path fill="#263245" d="M43 33h-2v2h2v2h-2v2h2v2h-2v2h2v2h-2v2h2v2h-6v-2h2v-2h-2v-2h2v-2h-2v-2h2v-2h-2v-2h2v-2h-2v-2h6v2Z"/>
  <path fill="#263245" d="M40 16c-.576 0-1.257.172-1.96.438-.721.272-1.537.671-2.402 1.188-1.731 1.032-3.706 2.561-5.57 4.568C26.333 26.213 23 32.196 23 40s3.334 13.787 7.067 17.806c1.865 2.007 3.84 3.536 5.57 4.568.866.517 1.682.916 2.403 1.188.703.266 1.384.438 1.96.438.576 0 1.257-.172 1.96-.438a15.447 15.447 0 0 0 2.402-1.188c1.731-1.032 3.706-2.561 5.57-4.568C53.667 53.787 57 47.804 57 40s-3.334-13.787-7.067-17.806c-1.865-2.007-3.84-3.536-5.57-4.568a15.447 15.447 0 0 0-2.403-1.188C41.257 16.172 40.576 16 40 16Zm-9.456 8.684C32.62 26.548 36.116 28 40 28c3.884 0 7.379-1.452 9.456-3.316C52.496 28.366 55 33.498 55 40c0 6.502-2.503 11.634-5.544 15.316C47.38 53.452 43.884 52 40 52c-3.884 0-7.379 1.452-9.456 3.316C27.504 51.634 25 46.502 25 40c0-6.502 2.503-11.634 5.544-15.316Zm6.118 35.973c-1.465-.874-3.155-2.161-4.785-3.85C33.523 55.33 36.51 54 40 54c3.49 0 6.476 1.33 8.123 2.807-1.63 1.688-3.32 2.975-4.785 3.85a13.47 13.47 0 0 1-2.085 1.035c-.61.23-1.029.308-1.253.308-.224 0-.643-.078-1.253-.309-.59-.223-1.3-.566-2.085-1.034Zm11.461-37.464C46.476 24.67 43.49 26 40 26c-3.49 0-6.476-1.33-8.123-2.808 1.63-1.688 3.32-2.974 4.785-3.849a13.474 13.474 0 0 1 2.085-1.035c.61-.23 1.029-.308 1.253-.308.224 0 .643.078 1.253.308.59.224 1.3.567 2.085 1.035 1.465.875 3.155 2.161 4.785 3.85Z"/>
</svg>
