<svg xmlns="http://www.w3.org/2000/svg" width="80" height="80" fill="currentColor" viewBox="0 0 80 80">
  <path fill="#fff" d="M40 15a5.829 5.829 0 0 0-4.121 1.707L28.586 24H16v35h48V24H51.414l-7.293-7.293A5.829 5.829 0 0 0 40 15Zm8.586 9H31.414l5.611-5.61a3 3 0 0 0 5.95 0l5.61 5.61Z"/>
  <path fill="#000" d="M21 54V29h38v25H21Zm2-23v21h34V31H23Z"/>
  <path fill="#000" d="M40 15a5.829 5.829 0 0 0-4.121 1.707L28.586 24H16v35h48V24H51.414l-7.293-7.293A5.829 5.829 0 0 0 40 15Zm0 2a1 1 0 1 1 0 2 1 1 0 0 1 0-2Zm8.586 7H31.414l5.611-5.61a3 3 0 0 0 5.95 0l5.61 5.61ZM18 57V26h44v31H18Zm22-42Z"/>
</svg>
