<svg xmlns="http://www.w3.org/2000/svg" width="80" height="80" fill="currentColor" viewBox="0 0 80 80">
  <path fill="#fff" d="M36.287 19.126A5.911 5.911 0 0 1 37.964 21c.57.986.822 2.035.803 3h-1.962c-.5-.827-.805-1.863-.805-3 0-.676.103-1.305.287-1.874Zm-1.827-.807A8.015 8.015 0 0 0 34 21a7.98 7.98 0 0 0 .576 3H30.57c-.813-2.246-.113-4.44 1.43-5.33.714-.412 1.582-.527 2.46-.351Zm.948-1.827c-1.461-.445-3.023-.354-4.408.446-2.408 1.39-3.228 4.322-2.518 7.062H16v35h48V24H51.518c.71-2.74-.11-5.672-2.518-7.062-1.385-.8-2.947-.891-4.408-.446C43.518 14.99 41.902 14 40 14c-1.901 0-3.518.99-4.592 2.492Zm1.844.882C37.994 16.506 38.986 16 40 16c1.014 0 2.005.506 2.748 1.374A7.942 7.942 0 0 0 40 20.578a7.942 7.942 0 0 0-2.748-3.203Zm6.46 1.752A6.08 6.08 0 0 1 44 21c0 1.137-.305 2.173-.805 3h-1.962c-.02-.965.234-2.014.803-3a5.91 5.91 0 0 1 1.677-1.874ZM45.425 24A7.98 7.98 0 0 0 46 21c0-.934-.162-1.843-.46-2.681.878-.176 1.746-.061 2.46.351 1.543.89 2.243 3.084 1.43 5.33h-4.006Z"/>
  <path fill="#000" d="M36.287 19.126A5.911 5.911 0 0 1 37.964 21c.57.986.822 2.035.803 3h-1.962c-.5-.827-.805-1.863-.805-3 0-.676.103-1.305.287-1.874Zm-1.827-.807A8.015 8.015 0 0 0 34 21a7.98 7.98 0 0 0 .576 3H30.57c-.813-2.246-.113-4.44 1.43-5.33.714-.412 1.582-.527 2.46-.351Zm.948-1.827c-1.461-.445-3.023-.354-4.408.446-2.408 1.39-3.228 4.322-2.518 7.062H16v35h48V24H51.518c.71-2.74-.11-5.672-2.518-7.062-1.385-.8-2.947-.891-4.408-.446C43.518 14.99 41.902 14 40 14c-1.901 0-3.518.99-4.592 2.492Zm1.844.882C37.994 16.506 38.986 16 40 16c1.014 0 2.005.506 2.748 1.374A7.942 7.942 0 0 0 40 20.578a7.942 7.942 0 0 0-2.748-3.203Zm6.46 1.752A6.08 6.08 0 0 1 44 21c0 1.137-.305 2.173-.805 3h-1.962c-.02-.965.234-2.014.803-3a5.91 5.91 0 0 1 1.677-1.874ZM42 26v31h-4V26h4Zm2 31V46h18v11H44Zm0-13v-5h18v5H44Zm0-7V26h18v11H44Zm-8 20H18V46h18v11ZM18 44v-5h18v5H18Zm0-7V26h18v11H18Zm27.424-13A7.98 7.98 0 0 0 46 21c0-.934-.162-1.843-.46-2.681.878-.176 1.746-.061 2.46.351 1.543.89 2.243 3.084 1.43 5.33h-4.006Z"/>
</svg>
