<svg xmlns="http://www.w3.org/2000/svg" width="80" height="80" fill="currentColor" viewBox="0 0 80 80">
  <path fill="#fff" d="M64 40c0 13.255-10.745 24-24 24S16 53.255 16 40s10.745-24 24-24 24 10.745 24 24Z"/>
  <path fill="#000" d="M64 40c0 13.255-10.745 24-24 24S16 53.255 16 40s10.745-24 24-24 24 10.745 24 24ZM39 18.078c-2.712.426-5.299 2.572-7.322 6.15C29.547 28 28.156 33.193 28.012 39H39V18.078ZM26.012 39c.144-6.099 1.6-11.641 3.925-15.756.896-1.585 1.94-2.985 3.104-4.12C24.603 21.933 18.438 29.718 18.023 39h7.99Zm-7.99 2c.416 9.28 6.58 17.066 15.02 19.877-1.166-1.136-2.209-2.536-3.105-4.122-2.326-4.114-3.781-9.657-3.925-15.755h-7.99Zm9.99 0c.144 5.808 1.535 11 3.666 14.771 2.023 3.58 4.61 5.725 7.322 6.15V41H28.012ZM41 61.922c2.712-.426 5.299-2.572 7.322-6.15C50.453 52 51.844 46.807 51.988 41H41v20.922ZM53.988 41c-.144 6.099-1.6 11.641-3.925 15.755-.896 1.586-1.94 2.986-3.105 4.122C55.398 58.065 61.564 50.28 61.978 41h-7.99Zm7.99-2c-.416-9.28-6.58-17.066-15.02-19.877 1.166 1.136 2.209 2.536 3.105 4.121 2.325 4.115 3.781 9.657 3.925 15.756h7.99Zm-9.99 0c-.144-5.808-1.535-11-3.666-14.771-2.023-3.58-4.61-5.725-7.322-6.15V39h10.988Z"/>
</svg>
