<svg xmlns="http://www.w3.org/2000/svg" width="80" height="80" fill="currentColor" viewBox="0 0 80 80">
  <path fill="#fff" d="m33.307 16.893 5.986 5.986a.995.995 0 0 0 .898.274.995.995 0 0 0 .516-.274l5.986-5.986 9.966 2.491a5 5 0 0 1 3.73 4.099l3.193 20.982L52 52.523V63H28V52.523l-11.582-8.058 3.193-20.983a5 5 0 0 1 3.73-4.098l9.966-2.491Z"/>
  <path fill="#263245" d="m33.307 16.893 5.986 5.986a.995.995 0 0 0 .898.274.995.995 0 0 0 .516-.274l5.986-5.986 9.966 2.491a5 5 0 0 1 3.73 4.099l3.193 20.982L52 52.523V63H28V52.523l-11.582-8.058 3.193-20.983a5 5 0 0 1 3.73-4.098l9.966-2.491Zm-.614 2.215-8.867 2.216a3 3 0 0 0-2.238 2.46l-3.006 19.75L28 50.087V34h2v27h20V34h2v16.086l9.418-6.551-3.006-19.752a3 3 0 0 0-2.238-2.459l-8.867-2.216L45 21.414V46l1 4h-4l1-4V23.414l-.879.879a2.986 2.986 0 0 1-2.694.824 2.986 2.986 0 0 1-1.548-.824L37 23.414V46l1 4h-4l1-4V21.414l-2.307-2.306Z"/>
</svg>
