<svg xmlns="http://www.w3.org/2000/svg" width="80" height="80" fill="currentColor" viewBox="0 0 80 80">
  <path fill="#fff" d="M40 15a7 7 0 1 0 0 14 7 7 0 0 0 0-14Zm15 9a5 5 0 1 0 0 10 5 5 0 0 0 0-10Zm-35 5a5 5 0 1 1 10 0 5 5 0 0 1-10 0Zm32.065 8H57a7 7 0 0 1 7 7v11H53v4H27v-4H16V44a7 7 0 0 1 7-7h4.936A9 9 0 0 1 36 32h8a9 9 0 0 1 8.065 5Z"/>
  <path fill="#263245" d="M40 15a7 7 0 1 0 0 14 7 7 0 0 0 0-14Zm-5 7a5 5 0 1 1 10 0 5 5 0 0 1-10 0Zm20 2a5 5 0 1 0 0 10 5 5 0 0 0 0-10Zm-3 5a3 3 0 1 1 6 0 3 3 0 0 1-6 0Zm-32 0a5 5 0 1 1 10 0 5 5 0 0 1-10 0Zm5-3a3 3 0 1 0 0 6 3 3 0 0 0 0-6Zm27.065 11H57a7 7 0 0 1 7 7v11H53v4H27v-4H16V44a7 7 0 0 1 7-7h4.936A9 9 0 0 1 36 32h8a9 9 0 0 1 8.065 5Zm.712 2c.146.643.223 1.313.223 2v12h9v-9a5 5 0 0 0-5-5h-4.223Zm-25.554 0H23a5 5 0 0 0-5 5v9h9V41c0-.687.077-1.357.223-2ZM29 41v16h22V41a7 7 0 0 0-7-7h-8a7 7 0 0 0-7 7Z"/>
</svg>
