<svg xmlns="http://www.w3.org/2000/svg" width="80" height="80" fill="currentColor" viewBox="0 0 80 80">
  <path fill="#fff" d="M64 19H54v4h-6.686a9 9 0 0 0-6.364 2.636L37.586 29H26v-4H16v30h10v-2.699l11.286 10.533a3.877 3.877 0 0 0 6.509-3.157 4.171 4.171 0 0 0 3.162-1.22 4.17 4.17 0 0 0 1.212-3.288 4.182 4.182 0 0 0 3.288-7.126L51.414 48 54 45.414V49h10V19Z"/>
  <path fill="#000" d="M21 51a1 1 0 1 0 0-2 1 1 0 0 0 0 2Z"/>
  <path fill="#000" d="M54 19h10v30H54v-3.586L51.414 48l.043.043a4.182 4.182 0 0 1-3.288 7.126 4.172 4.172 0 0 1-1.212 3.288 4.171 4.171 0 0 1-3.162 1.22 3.877 3.877 0 0 1-6.51 3.157L26 52.301V55H16V25h10v4h11.586l3.364-3.364A9 9 0 0 1 47.314 23H54v-4Zm-7.043 33.543a2.182 2.182 0 0 0 3.086-3.086L39 38.414l-1.465 1.465a5 5 0 0 1-7.07 0L28.585 38l7-7H26v18.565l12.65 11.807a1.877 1.877 0 0 0 2.608-2.7l-4.965-4.965 1.414-1.414 4.752 4.752a2.182 2.182 0 0 0 3.084-3.088l-6.25-6.25 1.414-1.414 6.25 6.25ZM50 46.586l4-4V25h-6.686a7 7 0 0 0-4.95 2.05L31.414 38l.465.465a3 3 0 0 0 4.242 0L39 35.584l3.399 3.4A5 5 0 0 0 47 34h2a7.003 7.003 0 0 1-4.905 6.681L50 46.586ZM56 47h6V21h-6v26ZM24 27h-6v26h6V27Z"/>
</svg>
