<svg xmlns="http://www.w3.org/2000/svg" width="80" height="80" fill="currentColor" viewBox="0 0 80 80">
  <path fill="#fff" d="M40 16c-13.255 0-24 10.745-24 24s10.745 24 24 24 24-10.745 24-24-10.745-24-24-24Z"/>
  <path fill="#263245" d="M33 38a3 3 0 1 0 0-6 3 3 0 0 0 0 6Zm17-3a3 3 0 1 1-6 0 3 3 0 0 1 6 0ZM40 50c-4.995 0-8.695-2.719-10.064-6.352l-1.872.705C29.753 48.833 34.248 52 40 52s10.247-3.167 11.936-7.647l-1.872-.706C48.694 47.282 44.994 50 40 50Z"/>
  <path fill="#263245" d="M40 16c-13.255 0-24 10.745-24 24s10.745 24 24 24 24-10.745 24-24-10.745-24-24-24ZM18 40c0-12.15 9.85-22 22-22s22 9.85 22 22-9.85 22-22 22-22-9.85-22-22Z"/>
</svg>
