<svg xmlns="http://www.w3.org/2000/svg" width="80" height="80" fill="currentColor" viewBox="0 0 80 80">
  <path fill="#fff" d="M39 15c-11.046 0-20 8.954-20 20 0 6.083 2.717 11.532 7 15.2V63h20v-8h8a5 5 0 0 0 5-5v-8h2.497a2.566 2.566 0 0 0 1.757-4.436l-4.272-4.013c-.285-5.806-2.554-10.427-6.11-13.61C49.24 16.691 44.336 15 39 15Z"/>
  <path fill="#263245" d="M33.464 26.403C35.01 23.772 37.85 22 41.109 22 46.032 22 50 26.042 50 31s-3.968 9-8.891 9h-8.37C29.004 40 26 36.934 26 33.182c0-3.753 3.004-6.818 6.74-6.818.244 0 .485.013.724.039ZM41.109 24c-2.718 0-5.078 1.6-6.2 3.939l-.345.72-.78-.178a4.68 4.68 0 0 0-1.045-.117c-2.604 0-4.739 2.144-4.739 4.818C28 35.856 30.135 38 32.74 38h8.369C44.902 38 48 34.879 48 31s-3.098-7-6.891-7ZM40 48a2 2 0 1 1-4 0c0-1.34 1.31-3.132 1.81-3.766a.234.234 0 0 1 .374.006C38.68 44.9 40 46.78 40 48Zm4-1a2 2 0 0 0 2-2c0-1.22-1.321-3.1-1.816-3.76a.234.234 0 0 0-.374-.006C43.31 41.868 42 43.66 42 45a2 2 0 0 0 2 2Zm-10-2a2 2 0 1 1-4 0c0-1.34 1.31-3.132 1.81-3.766a.234.234 0 0 1 .374.006C32.68 41.9 34 43.78 34 45Z"/>
  <path fill="#263245" d="M39 15c-11.046 0-20 8.954-20 20 0 6.083 2.717 11.532 7 15.2V63h20v-8h8a5 5 0 0 0 5-5v-8h2.497a2.566 2.566 0 0 0 1.757-4.436l-4.272-4.013c-.285-5.806-2.554-10.427-6.11-13.61C49.24 16.691 44.336 15 39 15ZM21 35c0-9.941 8.059-18 18-18 4.919 0 9.326 1.557 12.538 4.431 3.201 2.866 5.283 7.1 5.463 12.602l.013.413 4.87 4.576a.566.566 0 0 1-.387.978h-2.934c-.864 0-1.563.7-1.563 1.563V50a3 3 0 0 1-3 3H44v8H28V49.257l-.368-.3C23.582 45.654 21 40.629 21 35Z"/>
</svg>
