<svg xmlns="http://www.w3.org/2000/svg" width="80" height="80" fill="currentColor" viewBox="0 0 80 80">
  <path fill="#fff" d="M31.293 59.707a3.819 3.819 0 0 1-1.117-2.883 3.819 3.819 0 0 1-2.883-1.117 3.819 3.819 0 0 1-1.117-2.883 3.828 3.828 0 0 1-2.883-6.531l.293-.293-2.79-2.79c-5.117-5.117-5.235-13.378-.266-18.64 5.175-5.479 13.852-5.602 19.18-.274l.178.178c5.704-5.55 14.883-5.398 20.396.413 5.349 5.638 5.232 14.511-.263 20.007l-.421.42 1.028.986a3.798 3.798 0 0 1-2.803 6.537 3.83 3.83 0 0 1-6.142 3.211 3.83 3.83 0 0 1-6 2 3.811 3.811 0 0 1-.976 1.66l-3 3a3.828 3.828 0 0 1-6.484-2.08 3.829 3.829 0 0 1-3.93-.92Z"/>
  <path fill="#000" d="M30.176 56.824a3.829 3.829 0 0 0 5.048 3.804 3.828 3.828 0 0 0 6.484 2.078l3-2.999a3.811 3.811 0 0 0 .975-1.659 3.83 3.83 0 0 0 6-2 3.83 3.83 0 0 0 6.142-3.211 3.798 3.798 0 0 0 2.803-6.537l-1.028-.985.42-.421c5.496-5.496 5.613-14.37.264-20.007-5.513-5.811-14.692-5.963-20.396-.413l-.177-.178c-5.33-5.328-14.006-5.204-19.18.274-4.97 5.262-4.852 13.523.266 18.64L23.586 46l-.293.293a3.828 3.828 0 0 0 2.883 6.531 3.819 3.819 0 0 0 1.117 2.883 3.819 3.819 0 0 0 2.883 1.117Zm8.12-31.113.194.193-7.394 7.606.954.954a7 7 0 0 0 9.9 0l2.702-2.702a14.269 14.269 0 0 0 3.48 1.395c2.44.61 5.703.637 8.537-1.914l-1.338-1.486c-2.166 1.949-4.653 1.976-6.713 1.46a12.268 12.268 0 0 1-2.569-.975c-.588-.3-1.123-.665-1.666-1.04l-3.847 3.848a5.001 5.001 0 0 1-6.605.413l7.105-7.308c4.886-5.026 12.973-4.977 17.797.108 4.603 4.852 4.502 12.487-.227 17.216l-.45.451-7.464-7.152-1.384 1.444 9.936 9.522a1.798 1.798 0 1 1-2.516 2.57l-.016-.017-.005-.004-8-8-1.414 1.414 8.003 8.003a1.829 1.829 0 0 1-2.589 2.583l-8-8-1.414 1.414 6 6a1.828 1.828 0 1 1-2.586 2.586l-3.899-3.899a3.82 3.82 0 0 0-1.1-3.101 3.81 3.81 0 0 0-1.66-.976 3.83 3.83 0 0 0-5.365-5.365 3.828 3.828 0 0 0-6.39-1.659L25 44.586l-2.79-2.79c-4.352-4.352-4.452-11.377-.226-15.852 4.4-4.66 11.78-4.765 16.313-.233Zm-.586 24.993a1.828 1.828 0 0 1 2.583 2.589l-5 5a1.829 1.829 0 0 1-2.588-2.584l5.005-5.005Zm-6.418 3.59a1.828 1.828 0 0 1-2.585-2.587l7-7a1.828 1.828 0 1 1 2.586 2.586l-1.996 1.995-.004.005-5.001 5.001Zm-4-4.001a1.829 1.829 0 0 1-2.585-2.586l5-5a1.828 1.828 0 1 1 2.586 2.586l-5 5Zm16 5.414.003.003c.712.714.711 1.87-.002 2.583l-3 3a1.829 1.829 0 0 1-2.586-2.586l3-3a1.828 1.828 0 0 1 2.583-.002l.003.002Z"/>
</svg>
