<svg xmlns="http://www.w3.org/2000/svg" width="80" height="80" fill="currentColor" viewBox="0 0 80 80">
  <path fill="#fff" d="M64 21H16v38h48V21Z"/>
  <path fill="#263245" d="M21 26a1 1 0 1 0 0-2 1 1 0 0 0 0 2Zm5-1a1 1 0 1 1-2 0 1 1 0 0 1 2 0Zm4 0a1 1 0 1 1-2 0 1 1 0 0 1 2 0Zm10 14a1 1 0 1 0 0-2 1 1 0 0 0 0 2Zm4-3h2a2 2 0 0 1 2 2v2a3.99 3.99 0 0 0 1.354 3A3.99 3.99 0 0 0 48 46v2a2 2 0 0 1-2 2h-2v2h2a4 4 0 0 0 4-4v-2a2 2 0 0 1 2-2v-2a2 2 0 0 1-2-2v-2a4 4 0 0 0-4-4h-2v2ZM34 50h2v2h-2a4 4 0 0 1-4-4v-2a2 2 0 0 0-2-2v-2a2 2 0 0 0 2-2v-2a4 4 0 0 1 4-4h2v2h-2a2 2 0 0 0-2 2v2a3.99 3.99 0 0 1-1.354 3A3.99 3.99 0 0 1 32 46v2a2 2 0 0 0 2 2Zm7-1v-8h-2v8h2Z"/>
  <path fill="#263245" d="M64 21H16v38h48V21Zm-46 6v-4h44v4H18Zm0 2h44v28H18V29Z"/>
</svg>
