<svg xmlns="http://www.w3.org/2000/svg" width="80" height="80" fill="currentColor" viewBox="0 0 80 80">
  <path fill="#fff" d="m40.65 16.24-.65-.557-.65.558c-.873.747-1.788 1.506-2.72 2.28-2.737 2.27-5.62 4.662-7.99 7.238-3.198 3.474-5.64 7.458-5.64 12.24 0 9.054 7.077 16.454 16 16.972V64h2v-9.03c8.923-.518 16-7.918 16-16.971 0-4.783-2.441-8.767-5.64-12.241-2.37-2.576-5.253-4.968-7.99-7.239a223.487 223.487 0 0 1-2.72-2.28Z"/>
  <path fill="#263245" d="m40.65 16.24-.65-.557-.65.558c-.873.747-1.788 1.506-2.72 2.28-2.737 2.27-5.62 4.662-7.99 7.238-3.198 3.474-5.64 7.458-5.64 12.24 0 9.054 7.077 16.454 16 16.972V64h2v-9.03c8.923-.518 16-7.918 16-16.971 0-4.783-2.441-8.767-5.64-12.241-2.37-2.576-5.253-4.968-7.99-7.239a223.487 223.487 0 0 1-2.72-2.28ZM41 52.968v-4.553l7.707-7.707-1.414-1.414L41 45.586V27h-2v10.586l-4.293-4.293-1.414 1.414L39 40.414v12.553C31.182 52.453 25 45.948 25 38c0-4.054 2.058-7.57 5.11-10.887 2.273-2.468 5-4.731 7.708-6.978.732-.607 1.463-1.213 2.182-1.822.72.609 1.45 1.215 2.181 1.822 2.709 2.247 5.436 4.51 7.708 6.978C52.941 30.43 55 33.946 55 38c0 7.948-6.182 14.453-14 14.967Z"/>
</svg>
