<svg xmlns="http://www.w3.org/2000/svg" width="80" height="80" fill="currentColor" viewBox="0 0 80 80">
  <path fill="#fff" d="M29 22a5 5 0 0 1 5-5h17a3 3 0 0 1 3 3v2h2a3 3 0 0 1 3 3v3.646c0 1.677.947 3.21 2.447 3.96A6.427 6.427 0 0 1 65 38.354V45H40v-6.192c0-2.71 1.615-5.16 4.106-6.227A4.775 4.775 0 0 0 47 28.192V25a3 3 0 0 1 3-3h2v-2a1 1 0 0 0-1-1H34a3 3 0 0 0-3 3v10.126a4.002 4.002 0 0 1 0 7.748V54h9a3 3 0 0 1 3 3v4H17v-4a3 3 0 0 1 3-3h9V39.874a4.002 4.002 0 0 1 0-7.748V22Z"/>
  <path fill="#fff" d="M52 48v7h2v-7h-2Zm7.634 5.099-3-5.197 1.732-1 3 5.197-1.732 1Zm-12-6.197-3 5.197 1.732 1 3-5.197-1.732-1Z"/>
  <path fill="#000" d="M29 22a5 5 0 0 1 5-5h17a3 3 0 0 1 3 3v2h2a3 3 0 0 1 3 3v3.646c0 1.677.947 3.21 2.447 3.96A6.427 6.427 0 0 1 65 38.354V45H40v-6.192c0-2.71 1.615-5.16 4.106-6.227A4.775 4.775 0 0 0 47 28.192V25a3 3 0 0 1 3-3h2v-2a1 1 0 0 0-1-1H34a3 3 0 0 0-3 3v10.126a4.002 4.002 0 0 1 0 7.748V54h9a3 3 0 0 1 3 3v4H17v-4a3 3 0 0 1 3-3h9V39.874a4.002 4.002 0 0 1 0-7.748V22Zm21 2a1 1 0 0 0-1 1v3.192c0 2.71-1.615 5.16-4.106 6.227A4.775 4.775 0 0 0 42 38.808V43h21v-4.646c0-1.677-.947-3.21-2.447-3.96A6.427 6.427 0 0 1 57 28.646V25a1 1 0 0 0-1-1h-6ZM20 56a1 1 0 0 0-1 1v2h22v-2a1 1 0 0 0-1-1H20Zm10-22a2 2 0 1 0 0 4 2 2 0 0 0 0-4Z"/>
  <path fill="#000" d="M52 48v7h2v-7h-2Zm7.634 5.099-3-5.197 1.732-1 3 5.197-1.732 1Zm-12-6.197-3 5.197 1.732 1 3-5.197-1.732-1Z"/>
</svg>
