<svg xmlns="http://www.w3.org/2000/svg" width="80" height="80" fill="currentColor" viewBox="0 0 80 80">
  <path fill="#fff" d="M31 50.764V49.1c0-2.374-1.333-4.595-3.087-6.617A15.942 15.942 0 0 1 24 32c0-8.837 7.163-16 16-16s16 7.163 16 16c0 4.01-1.476 7.676-3.913 10.483C50.334 44.505 49 46.726 49 49.1v1.664c.614.55 1 1.347 1 2.236v4a3 3 0 0 1-3 3h-2a5 5 0 0 1-10 0h-2a3 3 0 0 1-3-3v-4a2.99 2.99 0 0 1 1-2.236Z"/>
  <path fill="#000" d="M31 50.764V49.1c0-2.374-1.333-4.595-3.087-6.617A15.942 15.942 0 0 1 24 32c0-8.837 7.163-16 16-16s16 7.163 16 16c0 4.01-1.476 7.676-3.913 10.483C50.334 44.505 49 46.726 49 49.1v1.664c.614.55 1 1.347 1 2.236v4a3 3 0 0 1-3 3h-2a5 5 0 0 1-10 0h-2a3 3 0 0 1-3-3v-4a2.99 2.99 0 0 1 1-2.236ZM26 32c0 3.51 1.29 6.715 3.423 9.172C31.267 43.297 33 45.985 33 49.1v.9h3v-9.819l-2.328-6.208A2 2 0 1 1 35.732 31h8.536A2 2 0 0 1 48 32a2 2 0 0 1-1.672 1.973L44 40.181V50h3v-.9c0-3.115 1.733-5.803 3.577-7.928A13.942 13.942 0 0 0 54 32c0-7.732-6.268-14-14-14s-14 6.268-14 14Zm7 20a1 1 0 0 0-1 1v1h16v-1a1 1 0 0 0-1-1H33Zm5-2h4V39.819l2.456-6.548a1.997 1.997 0 0 1-.188-.271h-8.536a1.997 1.997 0 0 1-.188.27L38 39.82V50Zm-1 10a3 3 0 1 0 6 0h-6Zm-5-3a1 1 0 0 0 1 1h14a1 1 0 0 0 1-1v-1H32v1Z"/>
</svg>
