<svg xmlns="http://www.w3.org/2000/svg" width="80" height="80" fill="currentColor" viewBox="0 0 80 80">
  <path fill="#fff" d="M40.52 19.146a1 1 0 0 0-1.04 0c-3.098 1.888-5.637 4.888-7.305 8.556-3.284-2.358-7.004-3.704-10.651-3.79a1 1 0 0 0-.902.52C17.511 30.13 17.728 38.02 21.558 45H16v3a9 9 0 0 0 9 9h30a9 9 0 0 0 9-9v-3h-5.559c3.83-6.98 4.048-14.87.937-20.568a1 1 0 0 0-.902-.52c-3.647.086-7.367 1.432-10.65 3.79-1.669-3.668-4.208-6.668-7.306-8.556Z"/>
  <path fill="#000" d="M40.52 19.146a1 1 0 0 0-1.04 0c-3.098 1.888-5.637 4.888-7.305 8.556-3.284-2.358-7.004-3.704-10.651-3.79a1 1 0 0 0-.902.52C17.511 30.13 17.728 38.02 21.558 45H16v3a9 9 0 0 0 9 9h30a9 9 0 0 0 9-9v-3h-5.559c3.83-6.98 4.048-14.87.937-20.568a1 1 0 0 0-.902-.52c-3.647.086-7.367 1.432-10.65 3.79-1.669-3.668-4.208-6.668-7.306-8.556Zm8.075 10.472c2.911-2.195 6.166-3.465 9.311-3.679 2.495 5.09 2.202 12.188-1.478 18.56-3.207 5.556-8.18 9.16-13.149 10.246C47.395 50.883 50 44.785 50 38c0-2.969-.499-5.806-1.404-8.382ZM36.721 54.746c-4.97-1.088-9.942-4.69-13.15-10.246-3.679-6.373-3.972-13.472-1.478-18.56 3.146.213 6.4 1.483 9.311 3.678A25.296 25.296 0 0 0 30 38c0 6.785 2.605 12.883 6.72 16.745ZM32 38c0-7.358 3.295-13.653 8-16.813 4.705 3.16 8 9.454 8 16.813 0 7.359-3.295 13.653-8 16.813-4.705-3.16-8-9.454-8-16.813Zm-14 9h4.774c2.374 3.54 5.468 6.275 8.832 8H25a7 7 0 0 1-7-7v-1Zm30.394 8c3.364-1.725 6.458-4.46 8.832-8H62v1a7 7 0 0 1-7 7h-6.606Z"/>
</svg>
