<svg xmlns="http://www.w3.org/2000/svg" width="80" height="80" fill="currentColor" viewBox="0 0 80 80">
  <path fill="#fff" d="M40 16c-13.255 0-24 10.745-24 24s10.745 24 24 24 24-10.745 24-24-10.745-24-24-24Z"/>
  <path fill="#000" d="M52 28h-8v2h4.586l-7.968 7.968A9 9 0 1 0 44 45a8.962 8.962 0 0 0-1.968-5.618L50 31.414V36h2v-8ZM28 45a7 7 0 1 1 14 0 7 7 0 0 1-14 0Z"/>
  <path fill="#000" d="M40 16c-13.255 0-24 10.745-24 24s10.745 24 24 24 24-10.745 24-24-10.745-24-24-24ZM18 40c0-12.15 9.85-22 22-22s22 9.85 22 22-9.85 22-22 22-22-9.85-22-22Z"/>
</svg>
