<svg xmlns="http://www.w3.org/2000/svg" width="80" height="80" fill="currentColor" viewBox="0 0 80 80">
  <path fill="#fff" d="m18 18.674 15 4.285 14-4 15 4.286v38.08L47 57.04l-14 4-15-4.286v-38.08Z"/>
  <path fill="#263245" d="M47 35a3 3 0 1 0 0 6 3 3 0 0 0 0-6Zm-1 3a1 1 0 1 1 2 0 1 1 0 0 1-2 0Z"/>
  <path fill="#263245" d="m18 18.674 15 4.285 14-4 15 4.286v38.08L47 57.04l-14 4-15-4.286v-38.08Zm42 40v-33.92l-12-3.429v8.736c3.946.492 7 3.859 7 7.939 0 2.889-1.466 4.88-3.043 6.457-.53.53-1.106 1.044-1.645 1.525-.243.218-.479.428-.699.63-.648.594-1.198 1.144-1.613 1.704v6.93l12 3.428ZM39 38a8.001 8.001 0 0 1 7-7.939v-8.736l-12 3.429v33.92l12-3.429v-6.93c-.415-.56-.965-1.109-1.613-1.703-.22-.202-.457-.413-.7-.63a40.23 40.23 0 0 1-1.644-1.525C40.466 42.88 39 40.888 39 38Zm-7-13.246-12-3.429v33.92l12 3.429v-33.92ZM47 32a6 6 0 0 0-6 6c0 2.11 1.034 3.62 2.457 5.042.49.49.992.938 1.508 1.399.254.227.512.457.773.696.432.396.864.81 1.262 1.251.398-.44.83-.855 1.262-1.25.26-.24.518-.47.772-.696l.001-.001c.516-.46 1.018-.909 1.508-1.399C51.966 41.62 53 40.111 53 38a6 6 0 0 0-6-6Z"/>
</svg>
