<svg xmlns="http://www.w3.org/2000/svg" width="80" height="80" fill="currentColor" viewBox="0 0 80 80">
  <path fill="#fff" d="M52 19h6v8.252c3.026 2.177 5 5.732 5 9.748 0 4.016-1.974 7.57-5 9.748V55h-6v-1.774l-18-5.87v5.463l1.923 5.128c.735 1.96-.714 4.053-2.809 4.053h-4.807L25 53.181V46h-3a3 3 0 0 1-3-3v-.1a5.002 5.002 0 0 1-4-4.9v-2a5.002 5.002 0 0 1 4-4.9V31a3 3 0 0 1 3-3h7.841L52 20.774V19Z"/>
  <path fill="#263245" d="M52 19h6v8.252c3.026 2.177 5 5.732 5 9.748 0 4.016-1.974 7.57-5 9.748V55h-6v-1.774l-18-5.87v5.463l1.923 5.128c.735 1.96-.714 4.053-2.809 4.053h-4.807L25 53.181V46h-3a3 3 0 0 1-3-3v-.1a5.002 5.002 0 0 1-4-4.9v-2a5.002 5.002 0 0 1 4-4.9V31a3 3 0 0 1 3-3h7.841L52 20.774V19Zm2 2v32h2V21h-2Zm-2 1.878-21 6.848v14.548l21 6.848V22.878ZM29 44V30h-7a1 1 0 0 0-1 1v12a1 1 0 0 0 1 1h7Zm.841 2H27v6.819L29.693 60h3.421a1 1 0 0 0 .936-1.351L32 53.18v-6.477L29.841 46ZM19 33.17A3.001 3.001 0 0 0 17 36v2c0 1.306.835 2.417 2 2.83v-7.66Zm39 10.971A9.968 9.968 0 0 0 61 37a9.969 9.969 0 0 0-3-7.142v14.283ZM27 34h-4v-2h4v2Zm0 4h-4v-2h4v2Zm0 4h-4v-2h4v2Z"/>
</svg>
