<svg xmlns="http://www.w3.org/2000/svg" width="80" height="80" fill="currentColor" viewBox="0 0 80 80">
  <path fill="#fff" d="M30 25c0-5.523 4.477-10 10-10s10 4.477 10 10v14c0 5.185-3.947 9.449-9 9.95v4.017c7.818-.514 14-7.019 14-14.967h2c0 9.053-7.077 16.453-16 16.971V61h5v2H34v-2h5v-6.029C30.077 54.454 23 47.053 23 38h2c0 7.948 6.182 14.453 14 14.967v-4.016c-5.053-.502-9-4.766-9-9.951V25Z"/>
  <path fill="#263245" d="M40 23a1 1 0 1 0 0-2 1 1 0 0 0 0 2Zm1 5a1 1 0 1 1-2 0 1 1 0 0 1 2 0Zm3-2a1 1 0 1 0 0-2 1 1 0 0 0 0 2Zm-7-1a1 1 0 1 1-2 0 1 1 0 0 1 2 0Z"/>
  <path fill="#263245" d="M30 25c0-5.523 4.477-10 10-10s10 4.477 10 10v14c0 5.185-3.947 9.449-9 9.95v4.017c7.818-.514 14-7.019 14-14.967h2c0 9.053-7.077 16.453-16 16.971V61h5v2H34v-2h5v-6.029C30.077 54.454 23 47.053 23 38h2c0 7.948 6.182 14.453 14 14.967v-4.016c-5.053-.502-9-4.766-9-9.951V25Zm10-8a8 8 0 0 0-8 8v6h16v-6a8 8 0 0 0-8-8Zm-8 16v6a8 8 0 1 0 16 0v-6H32Z"/>
</svg>
