<svg xmlns="http://www.w3.org/2000/svg" width="80" height="80" fill="currentColor" viewBox="0 0 80 80">
  <path fill="#fff" d="m39.5 14.086 8.414 8.414-.628.628C54.127 25.678 59 32.27 59 40c0 8.206-5.492 15.13-13 17.297V60h2v2H34v-2h2v-2.703A18.046 18.046 0 0 1 24.412 47H19v-2h18v2h-4.486c2.019 2.444 5.071 4 8.486 4 6.075 0 11-4.925 11-11 0-4.437-2.628-8.263-6.415-10.002a5.001 5.001 0 0 1-7.342 2.174L29 41.414l-2.096-2.096a3 3 0 0 1-4.223-4.223L20.586 33 39.5 14.086Z"/>
  <path fill="#263245" d="m39.5 14.086 8.414 8.414-.628.628C54.127 25.678 59 32.27 59 40c0 8.206-5.492 15.13-13 17.297V60h2v2H34v-2h2v-2.703A18.046 18.046 0 0 1 24.412 47H19v-2h18v2h-4.486c2.019 2.444 5.071 4 8.486 4 6.075 0 11-4.925 11-11 0-4.437-2.628-8.263-6.415-10.002a5.001 5.001 0 0 1-7.342 2.174L29 41.414l-2.096-2.096a3 3 0 0 1-4.223-4.223L20.586 33 39.5 14.086Zm6.5 13.91c4.697 1.96 8 6.595 8 12.004 0 7.18-5.82 13-13 13a12.99 12.99 0 0 1-10.956-6h-3.436c2.597 5.33 8.067 9 14.392 9 8.837 0 16-7.163 16-16 0-7.196-4.752-13.285-11.29-15.296l-.538.539c.523.79.827 1.736.828 2.754ZM41 58c-1.022 0-2.024-.085-3-.249v2.25h6v-2.25a18.12 18.12 0 0 1-3 .25Zm-4.172-27.242a5 5 0 0 1 6.929-6.929l1.329-1.329-5.586-5.586L23.414 33 29 38.586l7.828-7.828ZM38 28a3 3 0 1 0 6 0 3 3 0 0 0-6 0Z"/>
</svg>
