<svg xmlns="http://www.w3.org/2000/svg" width="80" height="80" fill="currentColor" viewBox="0 0 80 80">
  <path fill="#fff" d="M25 21a5 5 0 0 1 5-5h20a5 5 0 0 1 5 5v38a5 5 0 0 1-5 5H30a5 5 0 0 1-5-5V21Z"/>
  <path fill="#000" d="M46 59H34v-2h12v2Zm-7-12v-3.5h-4l-1-1V33h2v8.5h3V31h2v10.5h3V33h2v9.5l-1 1h-4V47h-2Z"/>
  <path fill="#000" d="M25 21a5 5 0 0 1 5-5h20a5 5 0 0 1 5 5v38a5 5 0 0 1-5 5H30a5 5 0 0 1-5-5V21Zm5-3a3 3 0 0 0-3 3v38a3 3 0 0 0 3 3h20a3 3 0 0 0 3-3V21a3 3 0 0 0-3-3h-2a1 1 0 0 0-1 1v.5a1.5 1.5 0 0 1-1.5 1.5h-11a1.5 1.5 0 0 1-1.5-1.5V19a1 1 0 0 0-1-1h-2Z"/>
</svg>
