<svg xmlns="http://www.w3.org/2000/svg" width="80" height="80" fill="currentColor" viewBox="0 0 80 80">
  <path fill="#fff" d="M41.329 25H48v2h-5.17l.513.407c2.66 2.11 5.855 4.643 8.62 7.454C55.753 38.714 59 43.336 59 48.501 59 57.25 50.28 64 40 64s-19-6.75-19-15.5c0-5.165 3.247-9.787 7.037-13.64 2.765-2.81 5.959-5.343 8.62-7.454L37.17 27H32v-2h6.671l-6.424-7.341 1.086-1.601h.002l.008.003.033.011a21.41 21.41 0 0 0 .634.21c.429.137 1.029.32 1.712.502 1.392.372 3.036.716 4.278.716 1.242 0 2.886-.345 4.278-.716a37.578 37.578 0 0 0 2.346-.712l.033-.011.01-.004 1.086 1.602L41.329 25Z"/>
  <path fill="#263245" d="M39 41h-2.5a3.5 3.5 0 1 0 0 7H39v3h-5v2h5v1h2v-1h2.5a3.5 3.5 0 1 0 0-7H41v-3h5v-2h-5v-1h-2v1Zm-2.5 2H39v3h-2.5a1.5 1.5 0 0 1 0-3Zm4.5 5h2.5a1.5 1.5 0 0 1 0 3H41v-3Z"/>
  <path fill="#263245" d="M41.329 25H48v2h-5.17l.513.407c2.66 2.11 5.855 4.643 8.62 7.454C55.753 38.714 59 43.336 59 48.501 59 57.25 50.28 64 40 64s-19-6.75-19-15.5c0-5.165 3.247-9.787 7.037-13.64 2.765-2.81 5.959-5.343 8.62-7.454L37.17 27H32v-2h6.671l-6.424-7.341 1.086-1.601h.002l.008.003.033.011a21.41 21.41 0 0 0 .634.21c.429.137 1.029.32 1.712.502 1.392.372 3.036.716 4.278.716 1.242 0 2.886-.345 4.278-.716a37.578 37.578 0 0 0 2.346-.712l.033-.011.01-.004 1.086 1.602L41.329 25Zm2.662-6.08c-1.272.307-2.745.58-3.991.58s-2.72-.273-3.99-.58L40 23.481l3.99-4.56ZM29.463 36.264C25.753 40.036 23 44.164 23 48.5 23 55.765 30.398 62 40 62s17-6.235 17-13.5c0-4.336-2.753-8.464-6.463-12.236-2.671-2.716-5.701-5.119-8.337-7.21h-.002c-.772-.613-1.512-1.2-2.198-1.758-.687.559-1.426 1.145-2.2 1.759-2.636 2.09-5.666 4.493-8.337 7.209Z"/>
</svg>
