<svg xmlns="http://www.w3.org/2000/svg" width="80" height="80" fill="currentColor" viewBox="0 0 80 80">
  <path fill="#fff" d="M27.347 32A13.945 13.945 0 0 1 26 26c0-7.732 6.268-14 14-14s14 6.268 14 14c0 2.147-.483 4.181-1.347 6H64v28H16V32h11.347Z"/>
  <path fill="#263245" d="M39 32v1h2v-1h2.5a3.5 3.5 0 1 0 0-7H41v-3h5v-2h-5v-1h-2v1h-2.5a3.5 3.5 0 1 0 0 7H39v3h-5v2h5Zm2-2v-3h2.5a1.5 1.5 0 0 1 0 3H41Zm-2-8v3h-2.5a1.5 1.5 0 0 1 0-3H39Z"/>
  <path fill="#263245" d="M27.347 32A13.945 13.945 0 0 1 26 26c0-7.732 6.268-14 14-14s14 6.268 14 14c0 2.147-.483 4.181-1.347 6H64v28H16V32h11.347ZM28 26c0 6.626 5.37 11.997 11.995 12h.01C46.63 37.997 52 32.626 52 26c0-6.627-5.373-12-12-12s-12 5.373-12 12Zm.51 8H18v4.37l22 10.522L62 38.37V34H51.49a13.984 13.984 0 0 1-11.67 5.999A13.984 13.984 0 0 1 28.51 34ZM62 40.587l-12.182 5.826L62 56.829V40.587ZM60.292 58 47.845 47.357 40 51.109l-7.845-3.752L19.708 58h40.584ZM18 56.83l12.182-10.417L18 40.587v16.242Z"/>
</svg>
