<svg xmlns="http://www.w3.org/2000/svg" width="80" height="80" fill="currentColor" viewBox="0 0 80 80">
  <path fill="#fff" d="M46.438 16H22v2h1v2h-1v2h1v2h-1v2h1v2h-1v2h1v2h-1v2h1v2h-1v2h1v2h-1v2h1v2h-1v2h1v2h-1v2h1v2h-1v2h1v2h-1v2h1v2h-1v2h37V29.609L46.438 16Z"/>
  <path fill="#000" d="M39 31h-8v-2h8v2Zm-8 6h20v-2H31v2Zm20 6H31v-2h20v2Zm0 6H31v-2h20v2Z"/>
  <path fill="#000" d="M46.438 16H22v2h1v2h-1v2h1v2h-1v2h1v2h-1v2h1v2h-1v2h1v2h-1v2h1v2h-1v2h1v2h-1v2h1v2h-1v2h1v2h-1v2h1v2h-1v2h1v2h-1v2h37V29.609L46.438 16ZM25 18h20v13h12v29H25v-2h1v-2h-1v-2h1v-2h-1v-2h1v-2h-1v-2h1v-2h-1v-2h1v-2h-1v-2h1v-2h-1v-2h1v-2h-1v-2h1v-2h-1v-2h1v-2h-1v-2h1v-2h-1v-2Zm30.716 11H47v-9.442L55.716 29Z"/>
</svg>
