<svg xmlns="http://www.w3.org/2000/svg" width="80" height="80" fill="currentColor" viewBox="0 0 80 80">
  <path fill="#fff" d="M32 45a9 9 0 1 1 18 0 9 9 0 0 1-18 0Zm10.05 1.879h-2v-8h2v8Zm-1 2a1 1 0 1 0 0 2 1 1 0 0 0 0-2Z"/>
  <path fill="#fff" d="M25 18v42h32V31H45V18H25Zm16 16c-6.075 0-11 4.925-11 11s4.925 11 11 11 11-4.925 11-11-4.925-11-11-11Z"/>
  <path fill="#fff" d="M47 19.558 55.716 29H47v-9.442Z"/>
  <path fill="#000" d="M40.05 49.879a1 1 0 1 1 2 0 1 1 0 0 1-2 0Zm0-3h2v-8h-2v8Z"/>
  <path fill="#000" d="M41 34c-6.075 0-11 4.925-11 11s4.925 11 11 11 11-4.925 11-11-4.925-11-11-11Zm-9 11a9 9 0 1 1 18 0 9 9 0 0 1-18 0Z"/>
  <path fill="#000" d="M46.438 16H23v46h36V29.609L46.438 16ZM25 60V18h20v13h12v29H25Zm30.716-31H47v-9.442L55.716 29Z"/>
</svg>
