<svg xmlns="http://www.w3.org/2000/svg" width="80" height="80" fill="currentColor" viewBox="0 0 80 80">
  <path fill="#fff" d="M40 16c-13.255 0-24 10.745-24 24s10.745 24 24 24 24-10.745 24-24-10.745-24-24-24Z"/>
  <path fill="#263245" d="m40 24.842-13 7.584v15.148l13 7.584 13-7.584V32.426l-13-7.584ZM29.985 33 40 27.158 50.015 33 40 38.842 29.985 33ZM41 40.574l10-5.833v11.685l-10 5.833V40.574Zm-2 0V52.26l-10-5.833V34.74l10 5.833Z"/>
  <path fill="#263245" d="M40 16c-13.255 0-24 10.745-24 24s10.745 24 24 24 24-10.745 24-24-10.745-24-24-24ZM18 40c0-12.15 9.85-22 22-22s22 9.85 22 22-9.85 22-22 22-22-9.85-22-22Z"/>
</svg>
