<svg xmlns="http://www.w3.org/2000/svg" width="80" height="80" fill="currentColor" viewBox="0 0 80 80">
  <path fill="#fff" d="m56.121 22.707 2.293-2.293-2.828-2.828-2.293 2.293L52 18.586 20.079 50.507 18.78 57H57v-2H26.414L52 29.414 53.586 31l-8.293 8.293 1.414 1.414 13-13-1.414-1.414L55 29.586 53.414 28l4-4-1.293-1.293Z"/>
  <path fill="#000" d="m56.121 22.707 2.293-2.293-2.828-2.828-2.293 2.293L52 18.586 20.079 50.507 18.78 57H57v-2H26.414L52 29.414 53.586 31l-8.293 8.293 1.414 1.414 13-13-1.414-1.414L55 29.586 53.414 28l4-4-1.293-1.293Zm-4.414-1 2.586 2.586L44 34.586 41.414 32l10.293-10.293ZM42.586 36 24.507 54.079l-3.232.646.646-3.232 18.08-18.079L42.585 36Z"/>
</svg>
