<svg xmlns="http://www.w3.org/2000/svg" width="80" height="80" fill="currentColor" viewBox="0 0 80 80">
  <path fill="#fff" d="m30 19.113 6 9.6V61a3 3 0 0 1-3 3h-6a3 3 0 0 1-3-3V28.713l6-9.6ZM42 16h14v48H42V16Z"/>
  <path fill="#263245" d="m30 19.113 6 9.6V61a3 3 0 0 1-3 3h-6a3 3 0 0 1-3-3V28.713l6-9.6ZM26 31.38V57h3V31.713a3.667 3.667 0 0 1-1.008.185A3.654 3.654 0 0 1 26 31.38Zm5 .333V57h3V31.38a3.654 3.654 0 0 1-1.992.518A3.667 3.667 0 0 1 31 31.713Zm2.796-2.753L30 22.887l-3.796 6.073c.187.218.429.454.712.636.313.202.645.317.999.303.347-.013.83-.154 1.445-.667l.64-.534.64.534c.616.513 1.098.654 1.445.667.355.014.686-.101 1-.303.282-.181.524-.418.71-.636ZM34 59h-8v2a1 1 0 0 0 1 1h6a1 1 0 0 0 1-1v-2Zm8-43h14v48H42V16Zm2 2v3h10v-3H44Zm10 5H44v34h10v-4h-6v-2h6v-4h-6v-2h6v-4h-6v-2h6v-4h-6v-2h6v-3h-6v-2h6v-5Zm0 36H44v3h10v-3Z"/>
</svg>
