<svg xmlns="http://www.w3.org/2000/svg" width="80" height="80" fill="currentColor" viewBox="0 0 80 80">
  <path fill="#fff" d="M38 20a5 5 0 0 1 5-5h15v3c0 4.372-3.117 8.015-7.25 8.83 1.13.923 2.139 1.99 3 3.17H59a3 3 0 0 1 3 3v11a3 3 0 0 1-3 3h-3.504A17.052 17.052 0 0 1 51 52.962V58.5a5.5 5.5 0 1 1-11 0V57h-5v1.5a5.5 5.5 0 1 1-11 0v-5.538A16.985 16.985 0 0 1 18.264 43H18a4 4 0 0 1 0-8h.747C20.882 28.051 27.351 23 35 23h3v-3Z"/>
  <path fill="#000" d="M51 36a2 2 0 1 1-4 0 2 2 0 0 1 4 0Zm-20.5-3H33v-1h2v1h5v2h-5v3h2.5a3.5 3.5 0 1 1 0 7H35v1h-2v-1h-5v-2h5v-3h-2.5a3.5 3.5 0 1 1 0-7ZM29 36.5a1.5 1.5 0 0 0 1.5 1.5H33v-3h-2.5a1.5 1.5 0 0 0-1.5 1.5Zm6 6.5h2.5a1.5 1.5 0 0 0 0-3H35v3Z"/>
  <path fill="#000" d="M38 20a5 5 0 0 1 5-5h15v3c0 4.372-3.117 8.015-7.25 8.83 1.13.923 2.139 1.99 3 3.17H59a3 3 0 0 1 3 3v11a3 3 0 0 1-3 3h-3.504A17.052 17.052 0 0 1 51 52.962V58.5a5.5 5.5 0 1 1-11 0V57h-5v1.5a5.5 5.5 0 1 1-11 0v-5.538A16.985 16.985 0 0 1 18.264 43H18a4 4 0 0 1 0-8h.747C20.882 28.051 27.351 23 35 23h3v-3ZM18.264 37H18a2 2 0 1 0 0 4h.029a17.262 17.262 0 0 1 .235-4ZM43 17a3 3 0 0 0-3 3v5h-5c-8.284 0-15 6.716-15 15a14.97 14.97 0 0 0 5.625 11.71l.375.3v6.49a3.5 3.5 0 1 0 7 0v-3.594l1.062.065c.31.02.623.029.938.029h5c.315 0 .628-.01.938-.029L42 54.906V58.5a3.5 3.5 0 1 0 7 0v-6.49l.374-.3a15.046 15.046 0 0 0 4.536-6.085l.253-.625H59a1 1 0 0 0 1-1V33a1 1 0 0 0-1-1h-6.298l-.298-.437a15.078 15.078 0 0 0-5.137-4.689L47.752 25H49a7 7 0 0 0 7-7v-1H43Z"/>
</svg>
