<svg xmlns="http://www.w3.org/2000/svg" width="80" height="80" fill="currentColor" viewBox="0 0 80 80">
  <path fill="#fff" d="M33 17a4 4 0 0 1 4-4h6a4.002 4.002 0 0 1 3.874 3H47a3 3 0 0 1 3 3v5.483l9 5.98V61H21V30.464L30.727 24H48v-5a1 1 0 0 0-1-1h-.126A4.002 4.002 0 0 1 43 21h-6a4 4 0 0 1-4-4Z"/>
  <path fill="#263245" d="M33 17a4 4 0 0 1 4-4h6a4.002 4.002 0 0 1 3.874 3H47a3 3 0 0 1 3 3v5.483l9 5.98V61H21V30.464L30.727 24H48v-5a1 1 0 0 0-1-1h-.126A4.002 4.002 0 0 1 43 21h-6a4 4 0 0 1-4-4Zm15.669 9H31.33L23 31.536v6.599L30.727 33h18.546L57 38.135v-6.599L48.669 26ZM57 40.536l-7.03-4.67V59H57V40.536ZM47.97 59V35H45v15.28l-5-1.25-5 1.25V35h-2.97v24h15.94Zm-17.94 0V35.865L23 40.536V59h7.03ZM37 35v12.72l3-.75 3 .75V35h-6Zm0-20a2 2 0 1 0 0 4h6a2 2 0 1 0 0-4h-6Z"/>
</svg>
