<svg xmlns="http://www.w3.org/2000/svg" width="80" height="80" fill="currentColor" viewBox="0 0 80 80">
  <path fill="#fff" d="M37.844 23.616c-.172 1.272-.866 2.397-2.344 3.25l-1-1.732c.983-.568 1.28-1.174 1.362-1.786.098-.724-.084-1.553-.335-2.619l-.02-.083c-.226-.959-.504-2.134-.351-3.262.172-1.273.866-2.397 2.344-3.25l1 1.732c-.983.568-1.28 1.174-1.362 1.786-.098.724.084 1.553.335 2.618l.02.083c.226.96.504 2.135.351 3.263ZM42.5 21a3 3 0 1 1 6 0 3 3 0 0 1-6 0Zm17.765 6.936C60.142 28.097 60 28.38 60 29h-2c0-.96.233-1.696.673-2.275.396-.52.91-.836 1.262-1.052l.042-.025c.397-.244.608-.386.758-.584.123-.161.265-.445.265-1.064h2c0 .96-.233 1.696-.673 2.274-.396.522-.91.837-1.262 1.053l-.042.025c-.397.244-.608.386-.758.584Zm-13.24 3.844C46.407 32.27 46 32.905 46 34h-2c0-1.748.719-2.947 1.787-3.79.97-.765 2.222-1.227 3.292-1.62l.075-.028c1.164-.43 2.125-.793 2.82-1.342C52.594 26.73 53 26.095 53 25h2c0 1.747-.719 2.947-1.787 3.79-.97.765-2.222 1.226-3.292 1.62l-.075.028c-1.164.429-2.125.793-2.82 1.342Zm-16.38-5.55 4.464 4.465a3.001 3.001 0 1 1 3.696 3.696l5.03 5.03c1.234-1.676 2.681-2.601 4.257-3.066 1.788-.527 3.681-.438 5.377-.358l.078.004c1.785.084 3.36.149 4.795-.274 1.365-.403 2.663-1.271 3.792-3.227l1.732 1c-1.37 2.374-3.073 3.589-4.958 4.145-1.788.527-3.681.438-5.377.357L53.453 38c-1.785-.084-3.36-.149-4.795.274-1.205.356-2.357 1.074-3.388 2.583l8.5 8.5L23.842 61.62a4.188 4.188 0 0 1-5.463-5.463L30.644 26.23ZM54 43a3 3 0 1 1 6 0 3 3 0 0 1-6 0Z"/>
  <path fill="#000" d="M37.844 23.616c-.172 1.272-.866 2.397-2.344 3.25l-1-1.732c.983-.568 1.28-1.174 1.362-1.786.098-.724-.084-1.553-.335-2.619l-.02-.083c-.226-.959-.504-2.134-.351-3.262.172-1.273.866-2.397 2.344-3.25l1 1.732c-.983.568-1.28 1.174-1.362 1.786-.098.724.084 1.553.335 2.618l.02.083c.226.96.504 2.135.351 3.263ZM45.5 20a1 1 0 1 0 0 2 1 1 0 0 0 0-2Zm-3 1a3 3 0 1 1 6 0 3 3 0 0 1-6 0Zm17.765 6.936C60.142 28.097 60 28.38 60 29h-2c0-.96.233-1.696.673-2.275.396-.52.91-.836 1.262-1.052l.042-.025c.397-.244.608-.386.758-.584.123-.161.265-.445.265-1.064h2c0 .96-.233 1.696-.673 2.274-.396.522-.91.837-1.262 1.053l-.042.025c-.397.244-.608.386-.758.584Zm-13.24 3.844C46.407 32.27 46 32.905 46 34h-2c0-1.748.719-2.947 1.787-3.79.97-.765 2.222-1.227 3.292-1.62l.075-.028c1.164-.43 2.125-.793 2.82-1.342C52.594 26.73 53 26.095 53 25h2c0 1.747-.719 2.947-1.787 3.79-.97.765-2.222 1.226-3.292 1.62l-.075.028c-1.164.429-2.125.793-2.82 1.342Zm-16.38-5.55 4.464 4.465a3.001 3.001 0 1 1 3.696 3.696l5.03 5.03c1.234-1.676 2.681-2.601 4.257-3.066 1.788-.527 3.681-.438 5.377-.358l.078.004c1.785.084 3.36.149 4.795-.274 1.365-.403 2.663-1.271 3.792-3.227l1.732 1c-1.37 2.374-3.073 3.589-4.958 4.145-1.788.527-3.681.438-5.377.357L53.453 38c-1.785-.084-3.36-.149-4.795.274-1.205.356-2.357 1.074-3.388 2.583l8.5 8.5L23.842 61.62a4.188 4.188 0 0 1-5.463-5.463L30.644 26.23Zm.71 3.54-2.375 5.796L44.434 51.02l5.796-2.376L31.355 29.77Zm11.073 22.072-14.27-14.27-2.376 5.796 10.85 10.85 5.796-2.376Zm-7.802 3.198-9.666-9.666-2.375 5.796 6.245 6.245 5.796-2.375Zm-7.803 3.197-5.06-5.06-1.533 3.74a2.187 2.187 0 0 0 2.854 2.853l3.74-1.533ZM38 30.5a1 1 0 1 0 0 2 1 1 0 0 0 0-2ZM57 42a1 1 0 1 0 0 2 1 1 0 0 0 0-2Zm-3 1a3 3 0 1 1 6 0 3 3 0 0 1-6 0Z"/>
</svg>
