<svg xmlns="http://www.w3.org/2000/svg" width="80" height="80" fill="currentColor" viewBox="0 0 80 80">
  <path fill="#fff" d="M16 21h23v-3h2v3h23v36H42.703l4.948 4.24-1.302 1.52L40 57.316l-6.35 5.442-1.3-1.518L37.296 57H16V21Z"/>
  <path fill="#263245" d="M28 40h-6v11h6V40Zm2-13h6v24h-6V27Zm10 14h8v-2h-8v2Zm18 5H40v-2h18v2Zm-18 5h18v-2H40v2Z"/>
  <path fill="#263245" d="M16 21h23v-3h2v3h23v36H42.703l4.948 4.24-1.302 1.52L40 57.316l-6.35 5.442-1.3-1.518L37.296 57H16V21Zm2 34h44V23H18v32Z"/>
</svg>
