<svg xmlns="http://www.w3.org/2000/svg" width="80" height="80" fill="currentColor" viewBox="0 0 80 80">
  <path fill="#fff" d="M54 15h-2.72L49 21.838V32H19v4h-2.5v25H27v-7.8a11 11 0 0 1 5.824-9.706l.704-.376 1.156.544A11 11 0 0 1 41 53.615V61h20V21.838L58.72 15H56v-2h-2v2Z"/>
  <path fill="#263245" d="M54 15h-2.72L49 21.838V32H19v4h-2.5v25H27v-7.8a11 11 0 0 1 5.824-9.706l.704-.376 1.156.544A11 11 0 0 1 41 53.615V61h20V21.838L58.72 15H56v-2h-2v2ZM21 36v-2h28v2H21Zm30-2h8v25h-8V34Zm8-2h-8v-9h8v9Zm-7.613-11 1.334-4h4.558l1.334 4h-7.226ZM49 59h-6v-5.385a13 13 0 0 0-7.465-11.762l-2.063-.971-1.59.847A13 13 0 0 0 25 53.2V59h-6.5V38H49v21Zm5-11h2v-6h-2v6Z"/>
</svg>
