<svg xmlns="http://www.w3.org/2000/svg" width="80" height="80" fill="currentColor" viewBox="0 0 80 80">
  <path fill="#fff" d="M41 17h1a2 2 0 1 0-4 0h1v5.033c-7.693.506-13.801 6.812-13.995 14.586L18.546 44H16v1c0 4.638 4.726 8 10 8s10-3.362 10-8v-1h-2.546l-6.449-7.37C27.192 29.956 32.41 24.54 39 24.038V60h-6v2h14v-2h-6V24.038c6.591.501 11.808 5.918 11.995 12.592L46.546 44H44v1c0 4.638 4.726 8 10 8s10-3.362 10-8v-1h-2.546l-6.459-7.381c-.194-7.774-6.302-14.08-13.995-14.586V17ZM26 38.519 30.796 44h-9.592L26 38.519ZM49.204 44h9.592L54 38.519 49.204 44Z"/>
  <path fill="#263245" d="M41 17h1a2 2 0 1 0-4 0h1v5.033c-7.693.506-13.801 6.812-13.995 14.586L18.546 44H16v1c0 4.638 4.726 8 10 8s10-3.362 10-8v-1h-2.546l-6.449-7.37C27.192 29.956 32.41 24.54 39 24.038V60h-6v2h14v-2h-6V24.038c6.591.501 11.808 5.918 11.995 12.592L46.546 44H44v1c0 4.638 4.726 8 10 8s10-3.362 10-8v-1h-2.546l-6.459-7.381c-.194-7.774-6.302-14.08-13.995-14.586V17ZM26 38.519 30.796 44h-9.592L26 38.519ZM49.204 44 54 38.519 58.796 44h-9.592ZM54 51c-4.159 0-7.259-2.308-7.884-5h15.768c-.625 2.692-3.725 5-7.884 5Zm-35.884-5h15.768c-.625 2.692-3.725 5-7.884 5-4.159 0-7.259-2.308-7.884-5Z"/>
</svg>
