<svg xmlns="http://www.w3.org/2000/svg" width="80" height="80" fill="currentColor" viewBox="0 0 80 80">
  <path fill="#fff" d="M16 20h48v32H41v6h4v2h6v2h-6v2H35v-2h-6v-2h6v-2h4v-6H16V20Z"/>
  <path fill="#263245" d="M23 26a1 1 0 1 1-2 0 1 1 0 0 1 2 0Zm0 10a1 1 0 1 1-2 0 1 1 0 0 1 2 0Zm0 10a1 1 0 1 1-2 0 1 1 0 0 1 2 0Zm4-20a1 1 0 1 1-2 0 1 1 0 0 1 2 0Zm0 10a1 1 0 1 1-2 0 1 1 0 0 1 2 0Zm0 10a1 1 0 1 1-2 0 1 1 0 0 1 2 0Zm4-20a1 1 0 1 1-2 0 1 1 0 0 1 2 0Zm0 10a1 1 0 1 1-2 0 1 1 0 0 1 2 0Zm0 10a1 1 0 1 1-2 0 1 1 0 0 1 2 0Z"/>
  <path fill="#263245" d="M16 20h48v32H41v6h4v2h6v2h-6v2H35v-2h-6v-2h6v-2h4v-6H16V20Zm21 42h6v-2h-6v2ZM18 22v8h44v-8H18Zm44 10H18v8h44v-8Zm0 10H18v8h44v-8Z"/>
  <path fill="#263245" d="M43 45h16v2H43v-2Zm0-10h16v2H43v-2Zm0-10h16v2H43v-2Z"/>
</svg>
