<svg xmlns="http://www.w3.org/2000/svg" width="80" height="80" fill="currentColor" viewBox="0 0 80 80">
  <path fill="#fff" d="m32.496 16.784-9.423 7.281-.051.012a10.866 10.866 0 0 0-3.026 1.184c-1.673.976-3.496 2.751-3.496 5.738v.376L37.662 55.56A12.996 12.996 0 0 0 40.518 58H16v2c13.052-.003 26.103 0 39.155 0a9 9 0 0 0 7.028-3.378l1.598-1.998A1 1 0 0 0 64 54v-1.727a5 5 0 0 0-3.244-4.682l-1.618-.607A11 11 0 0 1 52 36.683V24.216c0-1.124-.635-2.15-1.64-2.653a3.119 3.119 0 0 0-2.69-.027c-1.468.67-4.297 1.767-6.688 1.651-1.166-.056-2.116-.395-2.783-1.1C37.531 21.379 37 20.148 37 18v-.415l-.548-.548a3 3 0 0 0-3.956-.253Z"/>
  <path fill="#000" d="m32.496 16.784-9.423 7.281-.051.012a10.866 10.866 0 0 0-3.026 1.184c-1.673.976-3.496 2.751-3.496 5.738v.376L37.662 55.56A12.996 12.996 0 0 0 40.518 58H16v2c13.052-.003 26.104 0 39.155 0a9 9 0 0 0 7.028-3.378l1.598-1.998A1 1 0 0 0 64 54v-1.727a5 5 0 0 0-3.244-4.682l-1.618-.607A11 11 0 0 1 52 36.683V24.216c0-1.124-.635-2.15-1.64-2.653a3.119 3.119 0 0 0-2.69-.027c-1.468.67-4.297 1.767-6.688 1.651-1.166-.056-2.116-.395-2.783-1.1C37.531 21.379 37 20.148 37 18v-.415l-.548-.548a3 3 0 0 0-3.956-.253Zm1.223 1.583a1 1 0 0 1 1.287.054c.067 2.245.67 3.906 1.74 5.038 1.137 1.204 2.654 1.653 4.14 1.725 2.911.14 6.125-1.149 7.615-1.83.33-.15.685-.144.965-.003a.966.966 0 0 1 .534.864V31H40v2h10v3h-8v2h8.066c.105 1.035.333 2.04.67 3H44v2h7.638a12.992 12.992 0 0 0 6.797 5.856l1.618.606A3 3 0 0 1 62 52.273v.855a66.547 66.547 0 0 1-6.157.498c-1.91.062-3.948.03-5.8-.196-1.874-.229-3.458-.645-4.529-1.287-.464-.279-.981-.786-1.56-1.56-.572-.765-1.162-1.731-1.79-2.864-.628-1.131-1.278-2.401-1.978-3.77l-.042-.082a189.036 189.036 0 0 0-2.203-4.218c-2.96-5.456-6.829-11.45-12.603-14.805l8.38-6.476Zm22.188 37.257a68.094 68.094 0 0 0 4.778-.331l-.064.08A7 7 0 0 1 55.155 58h-7.71a11 11 0 0 1-8.278-3.757L18.513 30.64c.132-1.8 1.245-2.924 2.49-3.65a8.868 8.868 0 0 1 2.366-.94c5.772 2.906 9.688 8.79 12.815 14.552a191.64 191.64 0 0 1 2.183 4.183l.039.075c.696 1.362 1.362 2.663 2.008 3.828.646 1.164 1.286 2.222 1.939 3.093.645.863 1.347 1.606 2.133 2.077 1.43.858 3.345 1.317 5.315 1.557 1.991.243 4.14.273 6.106.21Z"/>
</svg>
