<svg xmlns="http://www.w3.org/2000/svg" width="80" height="80" fill="currentColor" viewBox="0 0 80 80">
  <path fill="#fff" d="M28.207 18.207 26.414 20l7.086 7.086 5.793-5.793 1.414 1.414-3.136 3.136 19.5 19.5-3.536 3.536.88.879a3 3 0 0 1 0 4.242l7.292 7.293-1.414 1.415L53 55.415a3 3 0 0 1-4.243 0l-.879-.88-3.535 3.536-19.5-19.5-3.136 3.136-1.414-1.414 5.793-5.793L19 27.414l-1.793 1.793-1.414-1.414 11-11 1.414 1.414Z"/>
  <path fill="#000" d="M28.207 18.207 26.414 20l7.086 7.086 5.793-5.793 1.414 1.414-3.136 3.136 19.5 19.5-3.536 3.536.88.879a3 3 0 0 1 0 4.242l7.292 7.293-1.414 1.415L53 55.415a3 3 0 0 1-4.243 0l-.879-.88-3.535 3.536-19.5-19.5-3.136 3.136-1.414-1.414 5.793-5.793L19 27.414l-1.793 1.793-1.414-1.414 11-11 1.414 1.414ZM27.5 33.086l4.586-4.586L25 21.414 20.414 26l7.086 7.086Zm2.218 7.531 4.95-4.95 1.414 1.415-4.95 4.95 3.461 3.46 4.95-4.95 1.414 1.415-4.95 4.95 3.461 3.46 4.95-4.95 1.414 1.415-4.95 4.95 3.461 3.46 9.9-9.9-18.086-18.085-9.9 9.9 3.461 3.46ZM50.172 54a1 1 0 0 0 1.414 0L53 52.586a1 1 0 0 0 0-1.414l-.879-.879-2.828 2.829.879.878Z"/>
</svg>
