<svg xmlns="http://www.w3.org/2000/svg" width="80" height="80" fill="currentColor" viewBox="0 0 80 80">
  <path fill="#fff" d="M36 17h-4v-2h16.414l3.293 3.293-1.414 1.414L47.586 17H44v10h3v2.04a7 7 0 0 0 1.685 4.556l2.148 2.506A9 9 0 0 1 53 41.96V63H27V41.96a9 9 0 0 1 2.167-5.858l2.148-2.506A7 7 0 0 0 33 29.041V27h3V17Z"/>
  <path fill="#000" d="M41 53v5h-2v-5h-5v-2h5v-5h2v5h5v2h-5Z"/>
  <path fill="#000" d="M36 17h-4v-2h16.414l3.293 3.293-1.414 1.414L47.586 17H44v10h3v2.04a7 7 0 0 0 1.685 4.556l2.148 2.506A9 9 0 0 1 53 41.96V63H27V41.96a9 9 0 0 1 2.167-5.858l2.148-2.506A7 7 0 0 0 33 29.041V27h3V17Zm2 0v10h4V17h-4Zm-3 12v.04a9 9 0 0 1-2.167 5.858l-2.148 2.506A7 7 0 0 0 29.066 41h21.868a7 7 0 0 0-1.62-3.596l-2.147-2.506A9 9 0 0 1 45 29.04V29H35Zm16 14H29v18h22V43Z"/>
</svg>
