<svg xmlns="http://www.w3.org/2000/svg" width="80" height="80" fill="currentColor" viewBox="0 0 80 80">
  <path fill="#fff" d="M40.96 41.422 41 17H24v22l-6.378 7.037c-3.877 4.279-2.181 11.123 3.245 13.097a8.128 8.128 0 0 0 8.8-2.18l9.22-10.173a8 8 0 0 0 2.072-5.36Z"/>
  <path fill="#fff" d="M62.946 46.422 62.986 22h-17v22l-6.378 7.037c-3.877 4.279-2.181 11.123 3.245 13.097a8.128 8.128 0 0 0 8.8-2.18l9.22-10.173a8 8 0 0 0 2.073-5.36Z"/>
  <path fill="#000" d="M40.96 41.422 41 17H24v22l-6.378 7.037c-3.877 4.279-2.181 11.123 3.245 13.097a8.128 8.128 0 0 0 8.8-2.18l9.22-10.173a8 8 0 0 0 2.072-5.36ZM19.104 47.38 26 39.771V29h12.98l-.016 10H36c-2.883 0-4.107 3.67-1.8 5.4l2.468 1.851-8.482 9.36a6.14 6.14 0 0 1-.733.685l-1.063-2.978A5 5 0 0 0 21.68 50h-3.985a6.089 6.089 0 0 1 1.409-2.62Zm5.401 6.611 1.173 3.285a6.124 6.124 0 0 1-4.128-.022c-2.392-.87-3.822-2.994-4.014-5.254h4.144a3 3 0 0 1 2.825 1.991ZM38.983 27H26v-2h12.987l-.004 2Zm.007-4H26v-4h12.997l-.007 4ZM36 41h2.96v.418a6 6 0 0 1-.998 3.303L35.4 42.8c-.769-.577-.361-1.8.6-1.8Z"/>
  <path fill="#000" d="M62.946 46.422 62.986 22h-17v22l-6.378 7.037c-3.877 4.279-2.181 11.123 3.245 13.097a8.128 8.128 0 0 0 8.8-2.18l9.22-10.173a8 8 0 0 0 2.073-5.36ZM41.09 52.38l6.896-7.609V34h12.98l-.017 10H58c-2.883 0-4.106 3.67-1.8 5.4l2.46 1.845-8.488 9.365a6.15 6.15 0 0 1-.733.686l-1.063-2.978A5 5 0 0 0 43.667 55h-3.985a6.088 6.088 0 0 1 1.408-2.62ZM39.523 57h4.144a3 3 0 0 1 2.825 1.991l1.173 3.285a6.125 6.125 0 0 1-4.128-.022c-2.392-.87-3.822-2.994-4.014-5.254Zm21.446-25H47.986v-2h12.987l-.004 2Zm.007-4h-12.99v-4h12.997l-.007 4Zm-1.023 21.714L57.4 47.8c-.769-.577-.361-1.8.6-1.8h2.946v.418a6 6 0 0 1-.993 3.296Z"/>
</svg>
