<svg xmlns="http://www.w3.org/2000/svg" width="80" height="80" fill="currentColor" viewBox="0 0 80 80">
  <path fill="#fff" d="M37 18v-4h-2v4h2Zm-1 2c-6.075 0-11 4.925-11 11s4.925 11 11 11 11-4.925 11-11-4.925-11-11-11ZM23 48.786a1.786 1.786 0 0 1 3.571 0v.428a3.786 3.786 0 0 0 7.572 0v-.428a1.786 1.786 0 1 1 3.571 0v.428a3.786 3.786 0 1 0 7.572 0v-.428a1.786 1.786 0 0 1 3.571 0v.428a3.786 3.786 0 0 0 7.572 0v-.428a1.786 1.786 0 0 1 3.571 0V52h2v-3.214a3.786 3.786 0 1 0-7.571 0v.428a1.786 1.786 0 0 1-3.572 0v-.428a3.786 3.786 0 1 0-7.571 0v.428a1.786 1.786 0 0 1-3.572 0v-.428a3.786 3.786 0 1 0-7.571 0v.428a1.786 1.786 0 0 1-3.572 0v-.428a3.786 3.786 0 1 0-7.571 0V52h2v-3.214ZM24.786 56c-.987 0-1.786.8-1.786 1.786V61h-2v-3.214a3.786 3.786 0 1 1 7.571 0v.428a1.786 1.786 0 0 0 3.572 0v-.428a3.786 3.786 0 1 1 7.571 0v.428a1.786 1.786 0 0 0 3.572 0v-.428a3.786 3.786 0 1 1 7.571 0v.428a1.786 1.786 0 0 0 3.572 0v-.428a3.786 3.786 0 1 1 7.571 0V61h-2v-3.214a1.786 1.786 0 0 0-3.571 0v.428a3.786 3.786 0 0 1-7.572 0v-.428a1.786 1.786 0 1 0-3.571 0v.428a3.786 3.786 0 1 1-7.572 0v-.428a1.786 1.786 0 0 0-3.571 0v.428a3.786 3.786 0 0 1-7.572 0v-.428c0-.986-.8-1.786-1.785-1.786ZM49 30h4v2h-4v-2Zm-26 0h-4v2h4v-2Zm21.293-8.707 4-4 1.414 1.414-4 4-1.414-1.414Zm-22-2.586 4 4 1.414-1.414-4-4-1.414 1.414Z"/>
  <path fill="#263245" d="M37 18v-4h-2v4h2Zm-1 2c-6.075 0-11 4.925-11 11s4.925 11 11 11 11-4.925 11-11-4.925-11-11-11Zm-9 11a9 9 0 1 1 18 0 9 9 0 0 1-18 0Zm-4 17.786a1.786 1.786 0 0 1 3.571 0v.428a3.786 3.786 0 0 0 7.572 0v-.428a1.786 1.786 0 1 1 3.571 0v.428a3.786 3.786 0 1 0 7.572 0v-.428a1.786 1.786 0 0 1 3.571 0v.428a3.786 3.786 0 0 0 7.572 0v-.428a1.786 1.786 0 0 1 3.571 0V52h2v-3.214a3.786 3.786 0 1 0-7.571 0v.428a1.786 1.786 0 0 1-3.572 0v-.428a3.786 3.786 0 1 0-7.571 0v.428a1.786 1.786 0 0 1-3.572 0v-.428a3.786 3.786 0 1 0-7.571 0v.428a1.786 1.786 0 0 1-3.572 0v-.428a3.786 3.786 0 1 0-7.571 0V52h2v-3.214ZM24.786 56c-.987 0-1.786.8-1.786 1.786V61h-2v-3.214a3.786 3.786 0 1 1 7.571 0v.428a1.786 1.786 0 0 0 3.572 0v-.428a3.786 3.786 0 1 1 7.571 0v.428a1.786 1.786 0 0 0 3.572 0v-.428a3.786 3.786 0 1 1 7.571 0v.428a1.786 1.786 0 0 0 3.572 0v-.428a3.786 3.786 0 1 1 7.571 0V61h-2v-3.214a1.786 1.786 0 0 0-3.571 0v.428a3.786 3.786 0 0 1-7.572 0v-.428a1.786 1.786 0 1 0-3.571 0v.428a3.786 3.786 0 1 1-7.572 0v-.428a1.786 1.786 0 0 0-3.571 0v.428a3.786 3.786 0 0 1-7.572 0v-.428c0-.986-.8-1.786-1.785-1.786ZM49 30h4v2h-4v-2Zm-26 0h-4v2h4v-2Zm21.293-8.707 4-4 1.414 1.414-4 4-1.414-1.414Zm-22-2.586 4 4 1.414-1.414-4-4-1.414 1.414Z"/>
</svg>
