<svg xmlns="http://www.w3.org/2000/svg" width="80" height="80" fill="currentColor" viewBox="0 0 80 80">
  <path fill="#fff" d="M21 21a5 5 0 0 1 5-5h28a5 5 0 0 1 5 5v38a5 5 0 0 1-5 5H26a5 5 0 0 1-5-5V21Z"/>
  <path fill="#263245" d="M26 18a3 3 0 0 0-3 3v38a3 3 0 0 0 3 3h28a3 3 0 0 0 3-3V21a3 3 0 0 0-3-3H26Zm-5 3a5 5 0 0 1 5-5h28a5 5 0 0 1 5 5v38a5 5 0 0 1-5 5H26a5 5 0 0 1-5-5V21Z"/>
  <path fill="#263245" d="M40 55a1 1 0 1 1 0 2 1 1 0 0 1 0-2Zm-3 1a3 3 0 1 0 6 0 3 3 0 0 0-6 0Zm4-34a1 1 0 1 1-2 0 1 1 0 0 1 2 0Z"/>
</svg>
