<svg xmlns="http://www.w3.org/2000/svg" width="80" height="80" fill="currentColor" viewBox="0 0 80 80">
  <path fill="#fff" d="M38.77 18.305a12.982 12.982 0 0 0-2.706-1.394c-2.345-.882-5.69-1.378-9.707.084s-6.261 3.993-7.49 6.175a12.978 12.978 0 0 0-1.178 2.808 9.274 9.274 0 0 0-.295 1.477L21.13 37.72a9 9 0 0 0 4.653 5.079l7.47 3.483a4.978 4.978 0 0 0 3.009.388 9 9 0 0 0 .356 6.723l3.484 7.47a5 5 0 0 0 6.645 2.419l7.47-3.483a9 9 0 0 0 4.654-5.08l3.735-10.263c-.023-.2-.048-.4-.085-.598a10.608 10.608 0 0 0-.21-.879 12.982 12.982 0 0 0-1.177-2.808c-1.23-2.182-3.474-4.713-7.49-6.175-3.914-1.425-7.18-.99-9.506-.158a9 9 0 0 0-.456-4.327l-3.736-10.263a9.293 9.293 0 0 0-1.176-.942Z"/>
  <path fill="#263245" d="m37.38 26.817-4.698 1.71c-.513-1.41.197-2.732 1.495-3.204 1.297-.473 2.69.084 3.204 1.494Zm-13.155 4.788 4.699-1.71c-.513-1.41-1.907-1.966-3.205-1.494-1.297.472-2.007 1.795-1.494 3.204Zm4.912 3.321a1 1 0 0 0-1.705 1.045c1.402 2.29 3.968 3.664 6.791 2.637 2.823-1.027 3.906-3.73 3.508-6.386a1 1 0 0 0-1.978.297c.292 1.95-.49 3.582-2.214 4.21-1.723.627-3.372-.12-4.402-1.803Zm13.483 8.891 4.698 1.71c.513-1.41-.197-2.732-1.495-3.204-1.297-.473-2.69.084-3.204 1.494Zm8.456 3.078 4.699 1.71c.513-1.41-.197-2.732-1.494-3.204-1.298-.473-2.691.084-3.205 1.494ZM50.2 57.196a1 1 0 0 1-.842-1.137c.293-1.95-.49-3.583-2.213-4.21-1.723-.627-3.372.12-4.402 1.802a1 1 0 1 1-1.706-1.044c1.403-2.29 3.969-3.665 6.792-2.637 2.823 1.027 3.906 3.73 3.507 6.386a1 1 0 0 1-1.137.84Z"/>
  <path fill="#263245" d="M38.77 18.305a12.982 12.982 0 0 0-2.706-1.394c-2.345-.882-5.69-1.378-9.707.084s-6.261 3.993-7.49 6.175a12.978 12.978 0 0 0-1.178 2.808 9.274 9.274 0 0 0-.295 1.477L21.13 37.72a9 9 0 0 0 4.653 5.079l7.47 3.483a4.978 4.978 0 0 0 3.009.388 9 9 0 0 0 .356 6.723l3.484 7.47a5 5 0 0 0 6.645 2.419l7.47-3.483a9 9 0 0 0 4.654-5.08l3.735-10.263c-.023-.2-.048-.4-.085-.598a10.608 10.608 0 0 0-.21-.879 12.982 12.982 0 0 0-1.177-2.808c-1.23-2.182-3.474-4.713-7.49-6.175-3.914-1.425-7.18-.99-9.506-.158a9 9 0 0 0-.456-4.327l-3.736-10.263a9.293 9.293 0 0 0-1.176-.942Zm-15.76 18.73-3.566-9.797.001-.008c.031-.161.084-.403.17-.706.172-.606.475-1.45.995-2.372 1.033-1.834 2.931-4.003 6.432-5.278 3.5-1.274 6.35-.832 8.32-.091a10.98 10.98 0 0 1 2.286 1.177c.26.177.457.328.584.432l.006.005 3.566 9.798a7 7 0 0 1-.234 5.352l-3.483 7.47a3 3 0 0 1-3.987 1.451l-7.47-3.483a7 7 0 0 1-3.62-3.95Zm15.877 8.268a4.974 4.974 0 0 0 1.012-1.44l3.484-7.47.028-.062c1.924-1.001 5.254-2.02 9.55-.457 3.5 1.274 5.398 3.444 6.431 5.278.52.923.824 1.765.995 2.372.086.303.14.545.17.706l.001.007-3.566 9.798a7 7 0 0 1-3.62 3.95l-7.47 3.483a3 3 0 0 1-3.986-1.45l-3.484-7.471a7 7 0 0 1-.234-5.353l.689-1.89Z"/>
</svg>
