<svg xmlns="http://www.w3.org/2000/svg" width="80" height="80" fill="currentColor" viewBox="0 0 80 80">
  <path fill="#fff" d="M49.618 18H30.382l4.565 9.13-6.042 27.189L40 65.414 51.095 54.32l-6.042-27.19L49.618 18Z"/>
  <path fill="#263245" d="M49.618 18H30.382l4.565 9.13-6.042 27.189L40 65.414 51.095 54.32l-6.042-27.19L49.618 18Zm-6.42 10 .596 2.681-9.755 9.755L36.802 28h6.396Zm.184-2h-6.764l-3-6h12.764l-3 6ZM33.231 44.073l11.077-11.078 1.142 5.14L31.435 52.15l1.796-8.077ZM31.913 54.5l14.05-14.05 1.123 5.05L35 57.585 31.914 54.5Zm4.5 4.5L47.6 47.813l1.304 5.868L40 62.586 36.414 59Z"/>
</svg>
