<svg xmlns="http://www.w3.org/2000/svg" width="80" height="80" fill="currentColor" viewBox="0 0 80 80">
  <path fill="#fff" d="M55 22a4.002 4.002 0 0 1-3 3.874V35h12v10H52v4h12v10H52v3h-2v-3H38V49h12v-4H29v17h-2V45h-6V35h6v-4H16V21h11v-3h2v3h13v10H29v4h21v-9.126A4.002 4.002 0 0 1 51 18a4 4 0 0 1 4 4Z"/>
  <path fill="#263245" d="M55 22a4.002 4.002 0 0 1-3 3.874V35h12v10H52v4h12v10H52v3h-2v-3H38V49h12v-4H29v17h-2V45h-6V35h6v-4H16V21h11v-3h2v3h13v10H29v4h21v-9.126A4.002 4.002 0 0 1 51 18a4 4 0 0 1 4 4Zm-6 0a2 2 0 1 0 4 0 2 2 0 0 0-4 0ZM23 37v6h39v-6H23Zm17 14v6h22v-6H40ZM18 29h22v-6H18v6Z"/>
</svg>
