<svg xmlns="http://www.w3.org/2000/svg" width="80" height="80" fill="currentColor" viewBox="0 0 80 80">
  <path fill="#fff" d="M16 32.5C16 24.492 22.492 18 30.5 18c2.451 0 4.763.609 6.79 1.685 1.644.873 3.776.873 5.42 0A14.441 14.441 0 0 1 49.5 18C57.508 18 64 24.492 64 32.5c0 3.033-1.127 5.142-2.303 6.92-.255.385-.504.745-.742 1.09-.898 1.3-1.646 2.384-1.985 3.733l-.09.362c-1.145 4.559-2.321 9.246-3.864 12.817-.792 1.835-1.712 3.452-2.831 4.623C51.048 63.233 49.664 64 48 64c-.958 0-1.623-.57-2.048-1.235-.408-.64-.677-1.477-.88-2.352-.294-1.271-.496-2.863-.702-4.476-.076-.602-.153-1.207-.235-1.8-.314-2.254-.706-4.37-1.405-5.911C42.042 46.71 41.188 46 40 46s-2.042.71-2.73 2.226c-.699 1.54-1.091 3.657-1.405 5.912-.082.592-.159 1.197-.235 1.799-.206 1.613-.408 3.205-.703 4.476-.202.875-.47 1.713-.88 2.352C33.624 63.431 32.958 64 32 64c-1.664 0-3.049-.767-4.185-1.955-1.119-1.17-2.039-2.788-2.831-4.623-1.543-3.571-2.719-8.258-3.863-12.817l-.09-.361c-.34-1.35-1.088-2.434-1.986-3.735a58.65 58.65 0 0 1-.742-1.089C17.128 37.642 16 35.533 16 32.5Z"/>
  <path fill="#000" d="M30.5 20C23.596 20 18 25.596 18 32.5c0 2.467.89 4.182 1.971 5.816.198.3.41.604.625.914.925 1.331 1.938 2.79 2.374 4.527l.065.258c1.165 4.642 2.308 9.194 3.785 12.614.751 1.74 1.558 3.11 2.44 4.033C30.127 61.568 31.02 62 32 62h.003c.044 0 .16 0 .36-.312.22-.345.428-.913.616-1.726.27-1.166.452-2.599.652-4.169.08-.624.162-1.27.254-1.93.311-2.246.731-4.63 1.564-6.464C36.292 45.54 37.688 44 40 44c2.312 0 3.708 1.54 4.551 3.4.833 1.834 1.253 4.217 1.564 6.462.092.66.174 1.306.254 1.931.2 1.57.382 3.003.652 4.169.188.813.396 1.38.617 1.726.2.313.315.312.36.312H48c.98 0 1.873-.432 2.74-1.338.882-.923 1.689-2.293 2.44-4.033 1.477-3.42 2.62-7.972 3.785-12.614l.065-.258c.436-1.738 1.449-3.196 2.373-4.526.217-.311.428-.616.626-.915C61.11 36.682 62 34.966 62 32.5 62 25.596 56.404 20 49.5 20c-2.116 0-4.107.525-5.852 1.451-2.231 1.185-5.065 1.185-7.296 0A12.441 12.441 0 0 0 30.5 20ZM16 32.5C16 24.492 22.492 18 30.5 18c2.451 0 4.763.609 6.79 1.685 1.644.873 3.776.873 5.42 0A14.441 14.441 0 0 1 49.5 18C57.508 18 64 24.492 64 32.5c0 3.033-1.127 5.142-2.303 6.92-.255.385-.504.745-.742 1.09-.898 1.3-1.646 2.384-1.985 3.733l-.09.362c-1.145 4.559-2.321 9.246-3.864 12.817-.792 1.835-1.712 3.452-2.831 4.623C51.048 63.233 49.664 64 48 64c-.958 0-1.623-.57-2.048-1.235-.408-.64-.677-1.477-.88-2.352-.294-1.271-.496-2.863-.702-4.476-.076-.602-.153-1.207-.235-1.8-.314-2.254-.706-4.37-1.405-5.911C42.042 46.71 41.188 46 40 46s-2.042.71-2.73 2.226c-.699 1.54-1.091 3.657-1.405 5.912-.082.592-.159 1.197-.235 1.799-.206 1.613-.408 3.205-.703 4.476-.202.875-.47 1.713-.88 2.352C33.624 63.431 32.958 64 32 64c-1.664 0-3.049-.767-4.185-1.955-1.119-1.17-2.039-2.788-2.831-4.623-1.543-3.571-2.719-8.258-3.863-12.817l-.09-.361c-.34-1.35-1.088-2.434-1.986-3.735a58.65 58.65 0 0 1-.742-1.089C17.128 37.642 16 35.533 16 32.5Z"/>
</svg>
