<svg xmlns="http://www.w3.org/2000/svg" width="80" height="80" fill="currentColor" viewBox="0 0 80 80">
  <path fill="#fff" d="M40 16a6.99 6.99 0 0 0-5.538 2.718A12.94 12.94 0 0 0 28 17h-2v17h.035c.49 6.935 6.03 12.475 12.965 12.965v11.62l-.049.05.049.062V64h2v-3.255a7 7 0 0 0 8.333-11.243l-.698-.55L41 56.585v-9.621c7.265-.513 13-6.57 13-13.965V17h-2a12.94 12.94 0 0 0-6.462 1.718A6.989 6.989 0 0 0 40 16Z"/>
  <path fill="#000" d="M40 16a6.99 6.99 0 0 0-5.538 2.718A12.94 12.94 0 0 0 28 17h-2v17h.035c.49 6.935 6.03 12.475 12.965 12.965v11.62l-.049.05.049.062V64h2v-3.255a7 7 0 0 0 8.333-11.243l-.698-.55L41 56.585v-9.621c7.265-.513 13-6.57 13-13.965V17h-2a12.94 12.94 0 0 0-6.462 1.718A6.989 6.989 0 0 0 40 16Zm0 2a4.99 4.99 0 0 1 3.88 1.847A13.039 13.039 0 0 0 40 24.99a13.038 13.038 0 0 0-3.88-5.144A4.989 4.989 0 0 1 40 18Zm-1 12v14.959C32.84 44.45 28 39.29 28 33V19c6.075 0 11 4.925 11 11Zm2 0c0-6.075 4.925-11 11-11v14c0 6.29-4.84 11.45-11 11.959V30Zm.678 28.737 7.059-7.06a5 5 0 0 1-7.06 7.06Z"/>
</svg>
