<svg xmlns="http://www.w3.org/2000/svg" width="80" height="80" fill="currentColor" viewBox="0 0 80 80">
  <path fill="#fff" d="M41 18.02c12.791.525 23 11.06 23 23.98h-2c0-3.928-2.97-7-6.5-7S49 38.072 49 42h-2a7.001 7.001 0 0 0-6-6.93V60.5a3.5 3.5 0 1 1-7 0V59h2v1.5a1.5 1.5 0 0 0 3 0V35.07A7.001 7.001 0 0 0 33 42h-2c0-3.928-2.97-7-6.5-7S18 38.072 18 42h-2c0-12.92 10.209-23.455 23-23.98V16h2v2.02Z"/>
  <path fill="#263245" d="M41 18.02c12.791.525 23 11.06 23 23.98h-2c0-3.928-2.97-7-6.5-7S49 38.072 49 42h-2a7.001 7.001 0 0 0-6-6.93V60.5a3.5 3.5 0 1 1-7 0V59h2v1.5a1.5 1.5 0 0 0 3 0V35.07A7.001 7.001 0 0 0 33 42h-2c0-3.928-2.97-7-6.5-7S18 38.072 18 42h-2c0-12.92 10.209-23.455 23-23.98V16h2v2.02ZM40 20c-.685 0-1.482.397-2.342 1.443-.854 1.038-1.668 2.602-2.37 4.622-.938 2.696-1.645 6.11-2.01 9.95A8.978 8.978 0 0 1 40 33a8.978 8.978 0 0 1 6.722 3.015c-.365-3.84-1.072-7.254-2.01-9.95-.702-2.02-1.516-3.584-2.37-4.622C41.482 20.397 40.685 20 40 20Zm-6.601 5.408c.707-2.034 1.563-3.764 2.556-5.037-7.904 1.47-14.323 7.163-16.825 14.65C20.586 33.761 22.449 33 24.5 33c2.761 0 5.182 1.38 6.727 3.499.356-4.245 1.117-8.06 2.172-11.091Zm10.646-5.037c.993 1.273 1.849 3.003 2.556 5.037 1.055 3.031 1.816 6.846 2.172 11.09C50.318 34.38 52.74 33 55.5 33c2.051 0 3.914.761 5.37 2.021-2.502-7.487-8.921-13.18-16.825-14.65Z"/>
</svg>
