<svg xmlns="http://www.w3.org/2000/svg" width="80" height="80" fill="currentColor" viewBox="0 0 80 80">
  <path fill="#fff" d="M37 17H20v18.711A4.289 4.289 0 0 0 24.289 40c.366 0 .658.304.643.67l-.791 19.793a4.363 4.363 0 1 0 8.718 0l-.791-19.793a.644.644 0 0 1 .643-.67A4.289 4.289 0 0 0 37 35.711V17Zm13 0a5 5 0 0 0-5 5v25h5v14a4 4 0 0 0 8 0V17h-8Z"/>
  <path fill="#263245" d="M37 17H20v18.711A4.289 4.289 0 0 0 24.289 40c.366 0 .658.304.643.67l-.791 19.793a4.363 4.363 0 1 0 8.718 0l-.791-19.793a.644.644 0 0 1 .643-.67A4.289 4.289 0 0 0 37 35.711V17ZM22 35.711V19h3v13h2V19h3v13h2V19h3v16.711A2.289 2.289 0 0 1 32.711 38a2.644 2.644 0 0 0-2.642 2.75l.792 19.793a2.363 2.363 0 1 1-4.722 0l.792-19.793c.06-1.5-1.14-2.75-2.642-2.75A2.289 2.289 0 0 1 22 35.711ZM50 17a5 5 0 0 0-5 5v25h5v14a4 4 0 0 0 8 0V17h-8Zm-3 5a3 3 0 0 1 3-3h6v42a2 2 0 1 1-4 0V45h-5V22Z"/>
</svg>
