<svg xmlns="http://www.w3.org/2000/svg" width="80" height="80" fill="currentColor" viewBox="0 0 80 80">
  <path fill="#fff" d="M40 16c-13.255 0-24 10.745-24 24s10.745 24 24 24 24-10.745 24-24-10.745-24-24-24Z"/>
  <path fill="#263245" d="M30.293 31.707 38.586 40l-8.293 8.293 1.414 1.414L40 41.414l8.293 8.293 1.414-1.414L41.414 40l8.293-8.293-1.414-1.414L40 38.586l-8.293-8.293-1.414 1.414Z"/>
  <path fill="#263245" d="M40 16c-13.255 0-24 10.745-24 24s10.745 24 24 24 24-10.745 24-24-10.745-24-24-24ZM18 40c0-12.15 9.85-22 22-22s22 9.85 22 22-9.85 22-22 22-22-9.85-22-22Z"/>
</svg>
